ISO-10303-21;
HEADER;
/* Generated by software containing ST-Developer
 * from STEP Tools, Inc. (www.steptools.com) 
 */

FILE_DESCRIPTION(
/* description */ (''),
/* implementation_level */ '2;1');

FILE_NAME(
/* name */ 'door.stp',
/* time_stamp */ '2025-12-14T03:39:12+08:00',
/* author */ ('user'),
/* organization */ (''),
/* preprocessor_version */ 'ST-DEVELOPER v20',
/* originating_system */ 'Autodesk Inventor 2025',
/* authorisation */ '');

FILE_SCHEMA (('AUTOMOTIVE_DESIGN { 1 0 10303 214 3 1 1 }'));
ENDSEC;

DATA;
#10=MECHANICAL_DESIGN_GEOMETRIC_PRESENTATION_REPRESENTATION('',(#13),#562);
#11=SHAPE_REPRESENTATION_RELATIONSHIP('SRR','None',#569,#12);
#12=ADVANCED_BREP_SHAPE_REPRESENTATION('',(#14),#561);
#13=STYLED_ITEM('',(#578),#14);
#14=MANIFOLD_SOLID_BREP('\X2\5BE69AD4\X0\1',#321);
#15=FACE_BOUND('',#57,.T.);
#16=FACE_BOUND('',#64,.T.);
#17=B_SPLINE_CURVE_WITH_KNOTS('',3,(#475,#476,#477,#478),.UNSPECIFIED.,
 .F.,.F.,(4,4),(0.,0.731217899905821),.UNSPECIFIED.);
#18=B_SPLINE_CURVE_WITH_KNOTS('',3,(#482,#483,#484,#485,#486,#487,#488,
#489,#490,#491,#492,#493),.UNSPECIFIED.,.F.,.F.,(4,2,2,2,2,4),(0.,0.599999999999945,
0.794482713699439,0.946111815537077,1.06901097746336,1.21150021383464),
 .UNSPECIFIED.);
#19=B_SPLINE_SURFACE_WITH_KNOTS('',3,1,((#465,#466),(#467,#468),(#469,#470),
(#471,#472)),.UNSPECIFIED.,.F.,.F.,.F.,(4,4),(2,2),(1.,2.),(-4.575,4.575),
 .UNSPECIFIED.);
#20=PLANE('',#347);
#21=PLANE('',#348);
#22=PLANE('',#349);
#23=PLANE('',#356);
#24=PLANE('',#357);
#25=PLANE('',#358);
#26=PLANE('',#359);
#27=PLANE('',#360);
#28=PLANE('',#361);
#29=PLANE('',#362);
#30=PLANE('',#363);
#31=PLANE('',#364);
#32=PLANE('',#365);
#33=PLANE('',#366);
#34=FACE_OUTER_BOUND('',#52,.T.);
#35=FACE_OUTER_BOUND('',#53,.T.);
#36=FACE_OUTER_BOUND('',#54,.T.);
#37=FACE_OUTER_BOUND('',#55,.T.);
#38=FACE_OUTER_BOUND('',#56,.T.);
#39=FACE_OUTER_BOUND('',#58,.T.);
#40=FACE_OUTER_BOUND('',#59,.T.);
#41=FACE_OUTER_BOUND('',#60,.T.);
#42=FACE_OUTER_BOUND('',#61,.T.);
#43=FACE_OUTER_BOUND('',#62,.T.);
#44=FACE_OUTER_BOUND('',#63,.T.);
#45=FACE_OUTER_BOUND('',#65,.T.);
#46=FACE_OUTER_BOUND('',#66,.T.);
#47=FACE_OUTER_BOUND('',#67,.T.);
#48=FACE_OUTER_BOUND('',#68,.T.);
#49=FACE_OUTER_BOUND('',#69,.T.);
#50=FACE_OUTER_BOUND('',#70,.T.);
#51=FACE_OUTER_BOUND('',#71,.T.);
#52=EDGE_LOOP('',(#216,#217,#218,#219));
#53=EDGE_LOOP('',(#220,#221,#222,#223));
#54=EDGE_LOOP('',(#224,#225,#226,#227));
#55=EDGE_LOOP('',(#228,#229,#230,#231,#232,#233,#234,#235));
#56=EDGE_LOOP('',(#236,#237,#238,#239,#240,#241,#242,#243));
#57=EDGE_LOOP('',(#244));
#58=EDGE_LOOP('',(#245,#246,#247,#248));
#59=EDGE_LOOP('',(#249,#250,#251,#252));
#60=EDGE_LOOP('',(#253));
#61=EDGE_LOOP('',(#254));
#62=EDGE_LOOP('',(#255,#256,#257,#258));
#63=EDGE_LOOP('',(#259,#260,#261,#262,#263,#264,#265,#266));
#64=EDGE_LOOP('',(#267));
#65=EDGE_LOOP('',(#268,#269,#270,#271));
#66=EDGE_LOOP('',(#272,#273,#274,#275));
#67=EDGE_LOOP('',(#276,#277,#278,#279));
#68=EDGE_LOOP('',(#280,#281,#282,#283));
#69=EDGE_LOOP('',(#284,#285,#286,#287));
#70=EDGE_LOOP('',(#288,#289,#290,#291));
#71=EDGE_LOOP('',(#292,#293,#294,#295,#296,#297,#298,#299));
#72=LINE('',#455,#106);
#73=LINE('',#458,#107);
#74=LINE('',#461,#108);
#75=LINE('',#463,#109);
#76=LINE('',#464,#110);
#77=LINE('',#480,#111);
#78=LINE('',#494,#112);
#79=LINE('',#497,#113);
#80=LINE('',#499,#114);
#81=LINE('',#501,#115);
#82=LINE('',#503,#116);
#83=LINE('',#505,#117);
#84=LINE('',#507,#118);
#85=LINE('',#508,#119);
#86=LINE('',#511,#120);
#87=LINE('',#512,#121);
#88=LINE('',#514,#122);
#89=LINE('',#515,#123);
#90=LINE('',#520,#124);
#91=LINE('',#526,#125);
#92=LINE('',#532,#126);
#93=LINE('',#533,#127);
#94=LINE('',#536,#128);
#95=LINE('',#537,#129);
#96=LINE('',#538,#130);
#97=LINE('',#541,#131);
#98=LINE('',#542,#132);
#99=LINE('',#545,#133);
#100=LINE('',#546,#134);
#101=LINE('',#549,#135);
#102=LINE('',#550,#136);
#103=LINE('',#553,#137);
#104=LINE('',#554,#138);
#105=LINE('',#556,#139);
#106=VECTOR('',#373,10.);
#107=VECTOR('',#376,10.);
#108=VECTOR('',#379,10.);
#109=VECTOR('',#380,10.);
#110=VECTOR('',#381,10.);
#111=VECTOR('',#382,10.);
#112=VECTOR('',#383,10.);
#113=VECTOR('',#386,10.);
#114=VECTOR('',#387,10.);
#115=VECTOR('',#388,10.);
#116=VECTOR('',#389,10.);
#117=VECTOR('',#390,10.);
#118=VECTOR('',#391,10.);
#119=VECTOR('',#392,10.);
#120=VECTOR('',#395,10.);
#121=VECTOR('',#396,10.);
#122=VECTOR('',#397,10.);
#123=VECTOR('',#398,10.);
#124=VECTOR('',#403,1.25);
#125=VECTOR('',#410,1.25);
#126=VECTOR('',#419,10.);
#127=VECTOR('',#420,10.);
#128=VECTOR('',#423,10.);
#129=VECTOR('',#424,10.);
#130=VECTOR('',#425,10.);
#131=VECTOR('',#428,10.);
#132=VECTOR('',#429,10.);
#133=VECTOR('',#432,10.);
#134=VECTOR('',#433,10.);
#135=VECTOR('',#436,10.);
#136=VECTOR('',#437,10.);
#137=VECTOR('',#440,10.);
#138=VECTOR('',#441,10.);
#139=VECTOR('',#444,10.);
#140=CIRCLE('',#345,2.);
#141=CIRCLE('',#346,2.);
#142=CIRCLE('',#350,1.25);
#143=CIRCLE('',#352,1.25);
#144=CIRCLE('',#354,1.25);
#145=CIRCLE('',#355,1.25);
#146=VERTEX_POINT('',#451);
#147=VERTEX_POINT('',#452);
#148=VERTEX_POINT('',#454);
#149=VERTEX_POINT('',#456);
#150=VERTEX_POINT('',#460);
#151=VERTEX_POINT('',#462);
#152=VERTEX_POINT('',#473);
#153=VERTEX_POINT('',#474);
#154=VERTEX_POINT('',#479);
#155=VERTEX_POINT('',#481);
#156=VERTEX_POINT('',#496);
#157=VERTEX_POINT('',#498);
#158=VERTEX_POINT('',#500);
#159=VERTEX_POINT('',#502);
#160=VERTEX_POINT('',#504);
#161=VERTEX_POINT('',#506);
#162=VERTEX_POINT('',#510);
#163=VERTEX_POINT('',#513);
#164=VERTEX_POINT('',#516);
#165=VERTEX_POINT('',#519);
#166=VERTEX_POINT('',#523);
#167=VERTEX_POINT('',#525);
#168=VERTEX_POINT('',#531);
#169=VERTEX_POINT('',#535);
#170=VERTEX_POINT('',#540);
#171=VERTEX_POINT('',#544);
#172=VERTEX_POINT('',#548);
#173=VERTEX_POINT('',#552);
#174=EDGE_CURVE('',#146,#147,#140,.T.);
#175=EDGE_CURVE('',#147,#148,#72,.T.);
#176=EDGE_CURVE('',#148,#149,#141,.T.);
#177=EDGE_CURVE('',#149,#146,#73,.T.);
#178=EDGE_CURVE('',#147,#150,#74,.T.);
#179=EDGE_CURVE('',#151,#150,#75,.T.);
#180=EDGE_CURVE('',#148,#151,#76,.T.);
#181=EDGE_CURVE('',#152,#153,#17,.T.);
#182=EDGE_CURVE('',#154,#152,#77,.T.);
#183=EDGE_CURVE('',#155,#154,#18,.T.);
#184=EDGE_CURVE('',#155,#153,#78,.T.);
#185=EDGE_CURVE('',#155,#156,#79,.T.);
#186=EDGE_CURVE('',#156,#157,#80,.T.);
#187=EDGE_CURVE('',#157,#158,#81,.T.);
#188=EDGE_CURVE('',#158,#159,#82,.T.);
#189=EDGE_CURVE('',#159,#160,#83,.T.);
#190=EDGE_CURVE('',#160,#161,#84,.T.);
#191=EDGE_CURVE('',#161,#153,#85,.T.);
#192=EDGE_CURVE('',#162,#154,#86,.T.);
#193=EDGE_CURVE('',#150,#162,#87,.T.);
#194=EDGE_CURVE('',#146,#163,#88,.T.);
#195=EDGE_CURVE('',#163,#156,#89,.T.);
#196=EDGE_CURVE('',#164,#164,#142,.T.);
#197=EDGE_CURVE('',#164,#165,#90,.T.);
#198=EDGE_CURVE('',#165,#165,#143,.T.);
#199=EDGE_CURVE('',#166,#166,#144,.T.);
#200=EDGE_CURVE('',#166,#167,#91,.T.);
#201=EDGE_CURVE('',#167,#167,#145,.T.);
#202=EDGE_CURVE('',#162,#168,#92,.T.);
#203=EDGE_CURVE('',#168,#151,#93,.T.);
#204=EDGE_CURVE('',#169,#161,#94,.T.);
#205=EDGE_CURVE('',#169,#149,#95,.T.);
#206=EDGE_CURVE('',#152,#168,#96,.T.);
#207=EDGE_CURVE('',#170,#169,#97,.T.);
#208=EDGE_CURVE('',#170,#160,#98,.T.);
#209=EDGE_CURVE('',#171,#170,#99,.T.);
#210=EDGE_CURVE('',#171,#159,#100,.T.);
#211=EDGE_CURVE('',#172,#171,#101,.T.);
#212=EDGE_CURVE('',#172,#158,#102,.T.);
#213=EDGE_CURVE('',#173,#172,#103,.T.);
#214=EDGE_CURVE('',#173,#157,#104,.T.);
#215=EDGE_CURVE('',#163,#173,#105,.T.);
#216=ORIENTED_EDGE('',*,*,#174,.T.);
#217=ORIENTED_EDGE('',*,*,#175,.T.);
#218=ORIENTED_EDGE('',*,*,#176,.T.);
#219=ORIENTED_EDGE('',*,*,#177,.T.);
#220=ORIENTED_EDGE('',*,*,#175,.F.);
#221=ORIENTED_EDGE('',*,*,#178,.T.);
#222=ORIENTED_EDGE('',*,*,#179,.F.);
#223=ORIENTED_EDGE('',*,*,#180,.F.);
#224=ORIENTED_EDGE('',*,*,#181,.F.);
#225=ORIENTED_EDGE('',*,*,#182,.F.);
#226=ORIENTED_EDGE('',*,*,#183,.F.);
#227=ORIENTED_EDGE('',*,*,#184,.T.);
#228=ORIENTED_EDGE('',*,*,#184,.F.);
#229=ORIENTED_EDGE('',*,*,#185,.T.);
#230=ORIENTED_EDGE('',*,*,#186,.T.);
#231=ORIENTED_EDGE('',*,*,#187,.T.);
#232=ORIENTED_EDGE('',*,*,#188,.T.);
#233=ORIENTED_EDGE('',*,*,#189,.T.);
#234=ORIENTED_EDGE('',*,*,#190,.T.);
#235=ORIENTED_EDGE('',*,*,#191,.T.);
#236=ORIENTED_EDGE('',*,*,#183,.T.);
#237=ORIENTED_EDGE('',*,*,#192,.F.);
#238=ORIENTED_EDGE('',*,*,#193,.F.);
#239=ORIENTED_EDGE('',*,*,#178,.F.);
#240=ORIENTED_EDGE('',*,*,#174,.F.);
#241=ORIENTED_EDGE('',*,*,#194,.T.);
#242=ORIENTED_EDGE('',*,*,#195,.T.);
#243=ORIENTED_EDGE('',*,*,#185,.F.);
#244=ORIENTED_EDGE('',*,*,#196,.T.);
#245=ORIENTED_EDGE('',*,*,#196,.F.);
#246=ORIENTED_EDGE('',*,*,#197,.T.);
#247=ORIENTED_EDGE('',*,*,#198,.F.);
#248=ORIENTED_EDGE('',*,*,#197,.F.);
#249=ORIENTED_EDGE('',*,*,#199,.F.);
#250=ORIENTED_EDGE('',*,*,#200,.T.);
#251=ORIENTED_EDGE('',*,*,#201,.F.);
#252=ORIENTED_EDGE('',*,*,#200,.F.);
#253=ORIENTED_EDGE('',*,*,#198,.T.);
#254=ORIENTED_EDGE('',*,*,#199,.T.);
#255=ORIENTED_EDGE('',*,*,#202,.T.);
#256=ORIENTED_EDGE('',*,*,#203,.T.);
#257=ORIENTED_EDGE('',*,*,#179,.T.);
#258=ORIENTED_EDGE('',*,*,#193,.T.);
#259=ORIENTED_EDGE('',*,*,#181,.T.);
#260=ORIENTED_EDGE('',*,*,#191,.F.);
#261=ORIENTED_EDGE('',*,*,#204,.F.);
#262=ORIENTED_EDGE('',*,*,#205,.T.);
#263=ORIENTED_EDGE('',*,*,#176,.F.);
#264=ORIENTED_EDGE('',*,*,#180,.T.);
#265=ORIENTED_EDGE('',*,*,#203,.F.);
#266=ORIENTED_EDGE('',*,*,#206,.F.);
#267=ORIENTED_EDGE('',*,*,#201,.T.);
#268=ORIENTED_EDGE('',*,*,#207,.T.);
#269=ORIENTED_EDGE('',*,*,#204,.T.);
#270=ORIENTED_EDGE('',*,*,#190,.F.);
#271=ORIENTED_EDGE('',*,*,#208,.F.);
#272=ORIENTED_EDGE('',*,*,#209,.T.);
#273=ORIENTED_EDGE('',*,*,#208,.T.);
#274=ORIENTED_EDGE('',*,*,#189,.F.);
#275=ORIENTED_EDGE('',*,*,#210,.F.);
#276=ORIENTED_EDGE('',*,*,#211,.T.);
#277=ORIENTED_EDGE('',*,*,#210,.T.);
#278=ORIENTED_EDGE('',*,*,#188,.F.);
#279=ORIENTED_EDGE('',*,*,#212,.F.);
#280=ORIENTED_EDGE('',*,*,#213,.T.);
#281=ORIENTED_EDGE('',*,*,#212,.T.);
#282=ORIENTED_EDGE('',*,*,#187,.F.);
#283=ORIENTED_EDGE('',*,*,#214,.F.);
#284=ORIENTED_EDGE('',*,*,#215,.T.);
#285=ORIENTED_EDGE('',*,*,#214,.T.);
#286=ORIENTED_EDGE('',*,*,#186,.F.);
#287=ORIENTED_EDGE('',*,*,#195,.F.);
#288=ORIENTED_EDGE('',*,*,#182,.T.);
#289=ORIENTED_EDGE('',*,*,#206,.T.);
#290=ORIENTED_EDGE('',*,*,#202,.F.);
#291=ORIENTED_EDGE('',*,*,#192,.T.);
#292=ORIENTED_EDGE('',*,*,#177,.F.);
#293=ORIENTED_EDGE('',*,*,#205,.F.);
#294=ORIENTED_EDGE('',*,*,#207,.F.);
#295=ORIENTED_EDGE('',*,*,#209,.F.);
#296=ORIENTED_EDGE('',*,*,#211,.F.);
#297=ORIENTED_EDGE('',*,*,#213,.F.);
#298=ORIENTED_EDGE('',*,*,#215,.F.);
#299=ORIENTED_EDGE('',*,*,#194,.F.);
#300=CYLINDRICAL_SURFACE('',#344,2.);
#301=CYLINDRICAL_SURFACE('',#351,1.25);
#302=CYLINDRICAL_SURFACE('',#353,1.25);
#303=ADVANCED_FACE('',(#34),#300,.F.);
#304=ADVANCED_FACE('',(#35),#20,.T.);
#305=ADVANCED_FACE('',(#36),#19,.F.);
#306=ADVANCED_FACE('',(#37),#21,.T.);
#307=ADVANCED_FACE('',(#38,#15),#22,.T.);
#308=ADVANCED_FACE('',(#39),#301,.T.);
#309=ADVANCED_FACE('',(#40),#302,.T.);
#310=ADVANCED_FACE('',(#41),#23,.F.);
#311=ADVANCED_FACE('',(#42),#24,.T.);
#312=ADVANCED_FACE('',(#43),#25,.T.);
#313=ADVANCED_FACE('',(#44,#16),#26,.T.);
#314=ADVANCED_FACE('',(#45),#27,.T.);
#315=ADVANCED_FACE('',(#46),#28,.T.);
#316=ADVANCED_FACE('',(#47),#29,.T.);
#317=ADVANCED_FACE('',(#48),#30,.T.);
#318=ADVANCED_FACE('',(#49),#31,.T.);
#319=ADVANCED_FACE('',(#50),#32,.T.);
#320=ADVANCED_FACE('',(#51),#33,.F.);
#321=CLOSED_SHELL('',(#303,#304,#305,#306,#307,#308,#309,#310,#311,#312,
#313,#314,#315,#316,#317,#318,#319,#320));
#322=DERIVED_UNIT_ELEMENT(#325,1.);
#323=DERIVED_UNIT_ELEMENT(#564,-3.);
#324=DIMENSIONAL_EXPONENTS(0.,1.,0.,0.,0.,0.,0.);
#325=(
CONVERSION_BASED_UNIT('gram',#327)
MASS_UNIT()
NAMED_UNIT(#324)
);
#326=(
MASS_UNIT()
NAMED_UNIT(*)
SI_UNIT(.KILO.,.GRAM.)
);
#327=MASS_MEASURE_WITH_UNIT(MASS_MEASURE(0.001),#326);
#328=DERIVED_UNIT((#322,#323));
#329=MEASURE_REPRESENTATION_ITEM('density measure',
POSITIVE_RATIO_MEASURE(1.),#328);
#330=PROPERTY_DEFINITION_REPRESENTATION(#335,#332);
#331=PROPERTY_DEFINITION_REPRESENTATION(#336,#333);
#332=REPRESENTATION('material name',(#334),#561);
#333=REPRESENTATION('density',(#329),#561);
#334=DESCRIPTIVE_REPRESENTATION_ITEM('\X2\4E00822C\X0\','\X2\4E00822C\X0\');
#335=PROPERTY_DEFINITION('material property','material name',#571);
#336=PROPERTY_DEFINITION('material property','density of part',#571);
#337=DATE_TIME_ROLE('creation_date');
#338=APPLIED_DATE_AND_TIME_ASSIGNMENT(#339,#337,(#571));
#339=DATE_AND_TIME(#340,#341);
#340=CALENDAR_DATE(2025,14,12);
#341=LOCAL_TIME(0,0,0.,#342);
#342=COORDINATED_UNIVERSAL_TIME_OFFSET(0,0,.BEHIND.);
#343=AXIS2_PLACEMENT_3D('',#449,#367,#368);
#344=AXIS2_PLACEMENT_3D('',#450,#369,#370);
#345=AXIS2_PLACEMENT_3D('',#453,#371,#372);
#346=AXIS2_PLACEMENT_3D('',#457,#374,#375);
#347=AXIS2_PLACEMENT_3D('',#459,#377,#378);
#348=AXIS2_PLACEMENT_3D('',#495,#384,#385);
#349=AXIS2_PLACEMENT_3D('',#509,#393,#394);
#350=AXIS2_PLACEMENT_3D('',#517,#399,#400);
#351=AXIS2_PLACEMENT_3D('',#518,#401,#402);
#352=AXIS2_PLACEMENT_3D('',#521,#404,#405);
#353=AXIS2_PLACEMENT_3D('',#522,#406,#407);
#354=AXIS2_PLACEMENT_3D('',#524,#408,#409);
#355=AXIS2_PLACEMENT_3D('',#527,#411,#412);
#356=AXIS2_PLACEMENT_3D('',#528,#413,#414);
#357=AXIS2_PLACEMENT_3D('',#529,#415,#416);
#358=AXIS2_PLACEMENT_3D('',#530,#417,#418);
#359=AXIS2_PLACEMENT_3D('',#534,#421,#422);
#360=AXIS2_PLACEMENT_3D('',#539,#426,#427);
#361=AXIS2_PLACEMENT_3D('',#543,#430,#431);
#362=AXIS2_PLACEMENT_3D('',#547,#434,#435);
#363=AXIS2_PLACEMENT_3D('',#551,#438,#439);
#364=AXIS2_PLACEMENT_3D('',#555,#442,#443);
#365=AXIS2_PLACEMENT_3D('',#557,#445,#446);
#366=AXIS2_PLACEMENT_3D('',#558,#447,#448);
#367=DIRECTION('axis',(0.,0.,1.));
#368=DIRECTION('refdir',(1.,0.,0.));
#369=DIRECTION('center_axis',(1.,-3.22973970800046E-16,0.));
#370=DIRECTION('ref_axis',(0.,0.707106781186549,0.707106781186546));
#371=DIRECTION('center_axis',(-1.,-1.46806350363657E-16,0.));
#372=DIRECTION('ref_axis',(0.,0.707106781186549,0.707106781186546));
#373=DIRECTION('',(1.,-3.22973970800046E-16,0.));
#374=DIRECTION('center_axis',(1.,1.46806350363657E-16,0.));
#375=DIRECTION('ref_axis',(0.,0.707106781186549,0.707106781186546));
#376=DIRECTION('',(-1.,3.22973970800046E-16,0.));
#377=DIRECTION('center_axis',(-3.22973970800046E-16,-1.,0.));
#378=DIRECTION('ref_axis',(-1.,3.22973970800046E-16,0.));
#379=DIRECTION('',(0.,0.,-1.));
#380=DIRECTION('',(-1.,3.22973970800046E-16,0.));
#381=DIRECTION('',(0.,0.,-1.));
#382=DIRECTION('',(1.,0.,0.));
#383=DIRECTION('',(1.,0.,0.));
#384=DIRECTION('center_axis',(0.,0.,1.));
#385=DIRECTION('ref_axis',(1.,0.,0.));
#386=DIRECTION('',(1.46806350363657E-16,-1.,0.));
#387=DIRECTION('',(-1.,-1.09115191470695E-15,0.));
#388=DIRECTION('',(6.83214169000096E-16,-1.,0.));
#389=DIRECTION('',(1.,0.,0.));
#390=DIRECTION('',(6.83214169000094E-16,1.,0.));
#391=DIRECTION('',(-1.,5.20922227459584E-16,0.));
#392=DIRECTION('',(-1.46806350363657E-16,1.,0.));
#393=DIRECTION('center_axis',(-1.,-1.46806350363657E-16,0.));
#394=DIRECTION('ref_axis',(1.46806350363657E-16,-1.,0.));
#395=DIRECTION('',(0.,0.,1.));
#396=DIRECTION('',(0.,1.,0.));
#397=DIRECTION('',(1.46806350363657E-16,-1.,0.));
#398=DIRECTION('',(0.,0.,1.));
#399=DIRECTION('center_axis',(1.,1.46806350363657E-16,0.));
#400=DIRECTION('ref_axis',(0.,1.,0.));
#401=DIRECTION('center_axis',(1.,0.,0.));
#402=DIRECTION('ref_axis',(0.,1.,0.));
#403=DIRECTION('',(-1.,0.,0.));
#404=DIRECTION('center_axis',(-1.,0.,0.));
#405=DIRECTION('ref_axis',(0.,1.,0.));
#406=DIRECTION('center_axis',(1.,0.,0.));
#407=DIRECTION('ref_axis',(0.,1.,0.));
#408=DIRECTION('center_axis',(1.,0.,0.));
#409=DIRECTION('ref_axis',(0.,1.,0.));
#410=DIRECTION('',(-1.,0.,0.));
#411=DIRECTION('center_axis',(-1.,-1.46806350363657E-16,0.));
#412=DIRECTION('ref_axis',(0.,1.,0.));
#413=DIRECTION('center_axis',(1.,0.,0.));
#414=DIRECTION('ref_axis',(0.,0.,-1.));
#415=DIRECTION('center_axis',(1.,0.,0.));
#416=DIRECTION('ref_axis',(0.,0.,-1.));
#417=DIRECTION('center_axis',(0.,0.,-1.));
#418=DIRECTION('ref_axis',(-1.,0.,0.));
#419=DIRECTION('',(1.,1.61486985400023E-16,0.));
#420=DIRECTION('',(0.,-1.,0.));
#421=DIRECTION('center_axis',(1.,1.46806350363657E-16,0.));
#422=DIRECTION('ref_axis',(-1.46806350363657E-16,1.,0.));
#423=DIRECTION('',(0.,0.,1.));
#424=DIRECTION('',(-1.46806350363657E-16,1.,0.));
#425=DIRECTION('',(0.,0.,-1.));
#426=DIRECTION('center_axis',(5.20922227459584E-16,1.,0.));
#427=DIRECTION('ref_axis',(-1.,5.20922227459584E-16,0.));
#428=DIRECTION('',(-1.,5.20922227459584E-16,0.));
#429=DIRECTION('',(0.,0.,1.));
#430=DIRECTION('center_axis',(1.,-6.83214169000094E-16,0.));
#431=DIRECTION('ref_axis',(6.83214169000094E-16,1.,0.));
#432=DIRECTION('',(6.83214169000094E-16,1.,0.));
#433=DIRECTION('',(0.,0.,1.));
#434=DIRECTION('center_axis',(0.,-1.,0.));
#435=DIRECTION('ref_axis',(1.,0.,0.));
#436=DIRECTION('',(1.,0.,0.));
#437=DIRECTION('',(0.,0.,1.));
#438=DIRECTION('center_axis',(-1.,-6.83214169000096E-16,0.));
#439=DIRECTION('ref_axis',(6.83214169000096E-16,-1.,0.));
#440=DIRECTION('',(6.83214169000096E-16,-1.,0.));
#441=DIRECTION('',(0.,0.,1.));
#442=DIRECTION('center_axis',(-1.09115191470695E-15,1.,0.));
#443=DIRECTION('ref_axis',(-1.,-1.09115191470695E-15,0.));
#444=DIRECTION('',(-1.,-1.09115191470695E-15,0.));
#445=DIRECTION('center_axis',(-1.61486985400023E-16,1.,0.));
#446=DIRECTION('ref_axis',(-1.,-1.61486985400023E-16,0.));
#447=DIRECTION('center_axis',(0.,0.,1.));
#448=DIRECTION('ref_axis',(1.,0.,0.));
#449=CARTESIAN_POINT('',(0.,0.,0.));
#450=CARTESIAN_POINT('Origin',(13.75,50.5,-2.));
#451=CARTESIAN_POINT('',(-27.5,50.5,0.));
#452=CARTESIAN_POINT('',(-27.5,52.5,-2.));
#453=CARTESIAN_POINT('Origin',(-27.5,50.5,-2.));
#454=CARTESIAN_POINT('',(27.5,52.5,-2.));
#455=CARTESIAN_POINT('',(13.75,52.5,-2.));
#456=CARTESIAN_POINT('',(27.5,50.5,0.));
#457=CARTESIAN_POINT('Origin',(27.5,50.5,-2.));
#458=CARTESIAN_POINT('',(13.75,50.5,0.));
#459=CARTESIAN_POINT('Origin',(27.5,52.5,0.));
#460=CARTESIAN_POINT('',(-27.5,52.5,-3.));
#461=CARTESIAN_POINT('',(-27.5,52.5,0.));
#462=CARTESIAN_POINT('',(27.5,52.5,-3.));
#463=CARTESIAN_POINT('',(27.5,52.5,-3.));
#464=CARTESIAN_POINT('',(27.5,52.5,0.));
#465=CARTESIAN_POINT('Ctrl Pts',(-45.75,53.5,3.));
#466=CARTESIAN_POINT('Ctrl Pts',(45.75,53.5,3.));
#467=CARTESIAN_POINT('Ctrl Pts',(-45.75,57.5,3.00000000000004));
#468=CARTESIAN_POINT('Ctrl Pts',(45.75,57.5,3.00000000000004));
#469=CARTESIAN_POINT('Ctrl Pts',(-45.75,60.5,3.));
#470=CARTESIAN_POINT('Ctrl Pts',(45.75,60.5,3.));
#471=CARTESIAN_POINT('Ctrl Pts',(-45.75,60.5,0.));
#472=CARTESIAN_POINT('Ctrl Pts',(45.75,60.5,0.));
#473=CARTESIAN_POINT('',(27.5,60.5,0.));
#474=CARTESIAN_POINT('',(27.5,53.5,3.));
#475=CARTESIAN_POINT('Ctrl Pts',(27.5,60.5,0.));
#476=CARTESIAN_POINT('Ctrl Pts',(27.5,60.5,3.));
#477=CARTESIAN_POINT('Ctrl Pts',(27.5,57.5,3.00000000000004));
#478=CARTESIAN_POINT('Ctrl Pts',(27.5,53.5,3.));
#479=CARTESIAN_POINT('',(-27.5,60.5,0.));
#480=CARTESIAN_POINT('',(0.,60.5,0.));
#481=CARTESIAN_POINT('',(-27.5,53.5,3.));
#482=CARTESIAN_POINT('Ctrl Pts',(-27.5,53.5,3.));
#483=CARTESIAN_POINT('Ctrl Pts',(-27.5,55.4999999999998,3.00000000000002));
#484=CARTESIAN_POINT('Ctrl Pts',(-27.5,57.2499999999999,3.00000000000004));
#485=CARTESIAN_POINT('Ctrl Pts',(-27.5,58.9051723202073,2.50344830393781));
#486=CARTESIAN_POINT('Ctrl Pts',(-27.5,59.2673864901765,2.33988190635762));
#487=CARTESIAN_POINT('Ctrl Pts',(-27.5,59.8039329922807,1.93966854332849));
#488=CARTESIAN_POINT('Ctrl Pts',(-27.5,59.9986871695977,1.72941835841167));
#489=CARTESIAN_POINT('Ctrl Pts',(-27.5,60.2694761617038,1.27272703733335));
#490=CARTESIAN_POINT('Ctrl Pts',(-27.5,60.3541285919173,1.05225198131695));
#491=CARTESIAN_POINT('Ctrl Pts',(-27.5,60.4747624512951,0.553644828799046));
#492=CARTESIAN_POINT('Ctrl Pts',(-27.5,60.5,0.275159310427097));
#493=CARTESIAN_POINT('Ctrl Pts',(-27.5,60.5,-2.08166817117217E-16));
#494=CARTESIAN_POINT('',(0.,53.5,3.));
#495=CARTESIAN_POINT('Origin',(0.,27.,3.));
#496=CARTESIAN_POINT('',(-27.5,0.,3.));
#497=CARTESIAN_POINT('',(-27.5,60.5,3.));
#498=CARTESIAN_POINT('',(-30.5,0.,3.));
#499=CARTESIAN_POINT('',(-27.5,9.88534955051805E-32,3.));
#500=CARTESIAN_POINT('',(-30.5,-6.5,3.));
#501=CARTESIAN_POINT('',(-30.5,-3.27345574412086E-15,3.));
#502=CARTESIAN_POINT('',(30.5,-6.5,3.));
#503=CARTESIAN_POINT('',(-30.5,-6.5,3.));
#504=CARTESIAN_POINT('',(30.5,1.77635683940025E-14,3.));
#505=CARTESIAN_POINT('',(30.5,-6.5,3.));
#506=CARTESIAN_POINT('',(27.5,1.77635683940025E-14,3.));
#507=CARTESIAN_POINT('',(30.5,1.52761268058973E-14,3.));
#508=CARTESIAN_POINT('',(27.5,1.68388934882761E-14,3.));
#509=CARTESIAN_POINT('Origin',(-27.5,60.5,0.));
#510=CARTESIAN_POINT('',(-27.5,60.5,-3.));
#511=CARTESIAN_POINT('',(-27.5,60.5,0.));
#512=CARTESIAN_POINT('',(-27.5,52.5,-3.));
#513=CARTESIAN_POINT('',(-27.5,9.88534955051805E-32,0.));
#514=CARTESIAN_POINT('',(-27.5,60.5,0.));
#515=CARTESIAN_POINT('',(-27.5,9.88534955051805E-32,0.));
#516=CARTESIAN_POINT('',(-27.5,55.25,-1.53080849893419E-16));
#517=CARTESIAN_POINT('Origin',(-27.5,56.5,0.));
#518=CARTESIAN_POINT('Origin',(0.,56.5,0.));
#519=CARTESIAN_POINT('',(-30.5,55.25,-1.53080849893419E-16));
#520=CARTESIAN_POINT('',(0.,55.25,-1.53080849893419E-16));
#521=CARTESIAN_POINT('Origin',(-30.5,56.5,0.));
#522=CARTESIAN_POINT('Origin',(0.,56.5,0.));
#523=CARTESIAN_POINT('',(30.5,55.25,-1.53080849893419E-16));
#524=CARTESIAN_POINT('Origin',(30.5,56.5,0.));
#525=CARTESIAN_POINT('',(27.5,55.25,1.53080849893419E-16));
#526=CARTESIAN_POINT('',(0.,55.25,-1.53080849893419E-16));
#527=CARTESIAN_POINT('Origin',(27.5,56.5,0.));
#528=CARTESIAN_POINT('Origin',(-30.5,56.5,0.));
#529=CARTESIAN_POINT('Origin',(30.5,56.5,0.));
#530=CARTESIAN_POINT('Origin',(-8.88178419700125E-15,56.5,-3.));
#531=CARTESIAN_POINT('',(27.5,60.5,-3.));
#532=CARTESIAN_POINT('',(-27.5,60.5,-3.));
#533=CARTESIAN_POINT('',(27.5,60.5,-3.));
#534=CARTESIAN_POINT('Origin',(27.5,1.68388934882761E-14,0.));
#535=CARTESIAN_POINT('',(27.5,1.68388934882761E-14,0.));
#536=CARTESIAN_POINT('',(27.5,1.68388934882761E-14,0.));
#537=CARTESIAN_POINT('',(27.5,1.68388934882761E-14,0.));
#538=CARTESIAN_POINT('',(27.5,60.5,0.));
#539=CARTESIAN_POINT('Origin',(30.5,1.52761268058973E-14,0.));
#540=CARTESIAN_POINT('',(30.5,1.52761268058973E-14,0.));
#541=CARTESIAN_POINT('',(30.5,1.52761268058973E-14,0.));
#542=CARTESIAN_POINT('',(30.5,1.52761268058973E-14,0.));
#543=CARTESIAN_POINT('Origin',(30.5,-6.5,0.));
#544=CARTESIAN_POINT('',(30.5,-6.5,0.));
#545=CARTESIAN_POINT('',(30.5,-6.5,0.));
#546=CARTESIAN_POINT('',(30.5,-6.5,0.));
#547=CARTESIAN_POINT('Origin',(-30.5,-6.5,0.));
#548=CARTESIAN_POINT('',(-30.5,-6.5,0.));
#549=CARTESIAN_POINT('',(-30.5,-6.5,0.));
#550=CARTESIAN_POINT('',(-30.5,-6.5,0.));
#551=CARTESIAN_POINT('Origin',(-30.5,-3.27345574412086E-15,0.));
#552=CARTESIAN_POINT('',(-30.5,-3.27345574412086E-15,0.));
#553=CARTESIAN_POINT('',(-30.5,-3.27345574412086E-15,0.));
#554=CARTESIAN_POINT('',(-30.5,-3.27345574412086E-15,0.));
#555=CARTESIAN_POINT('Origin',(-27.5,9.88534955051805E-32,0.));
#556=CARTESIAN_POINT('',(-27.5,9.88534955051805E-32,0.));
#557=CARTESIAN_POINT('Origin',(27.5,60.5,0.));
#558=CARTESIAN_POINT('Origin',(0.,27.,0.));
#559=UNCERTAINTY_MEASURE_WITH_UNIT(LENGTH_MEASURE(0.01),#563,
'DISTANCE_ACCURACY_VALUE',
'Maximum model space distance between geometric entities at asserted c
onnectivities');
#560=UNCERTAINTY_MEASURE_WITH_UNIT(LENGTH_MEASURE(0.01),#563,
'DISTANCE_ACCURACY_VALUE',
'Maximum model space distance between geometric entities at asserted c
onnectivities');
#561=(
GEOMETRIC_REPRESENTATION_CONTEXT(3)
GLOBAL_UNCERTAINTY_ASSIGNED_CONTEXT((#559))
GLOBAL_UNIT_ASSIGNED_CONTEXT((#563,#565,#566))
REPRESENTATION_CONTEXT('','3D')
);
#562=(
GEOMETRIC_REPRESENTATION_CONTEXT(3)
GLOBAL_UNCERTAINTY_ASSIGNED_CONTEXT((#560))
GLOBAL_UNIT_ASSIGNED_CONTEXT((#563,#565,#566))
REPRESENTATION_CONTEXT('','3D')
);
#563=(
LENGTH_UNIT()
NAMED_UNIT(*)
SI_UNIT(.MILLI.,.METRE.)
);
#564=(
LENGTH_UNIT()
NAMED_UNIT(*)
SI_UNIT(.CENTI.,.METRE.)
);
#565=(
NAMED_UNIT(*)
PLANE_ANGLE_UNIT()
SI_UNIT($,.RADIAN.)
);
#566=(
NAMED_UNIT(*)
SI_UNIT($,.STERADIAN.)
SOLID_ANGLE_UNIT()
);
#567=SHAPE_DEFINITION_REPRESENTATION(#568,#569);
#568=PRODUCT_DEFINITION_SHAPE('',$,#571);
#569=SHAPE_REPRESENTATION('',(#343),#561);
#570=PRODUCT_DEFINITION_CONTEXT('part definition',#575,'design');
#571=PRODUCT_DEFINITION('door','door',#572,#570);
#572=PRODUCT_DEFINITION_FORMATION('',$,#577);
#573=PRODUCT_RELATED_PRODUCT_CATEGORY('door','door',(#577));
#574=APPLICATION_PROTOCOL_DEFINITION('international standard',
'automotive_design',2009,#575);
#575=APPLICATION_CONTEXT(
'Core Data for Automotive Mechanical Design Process');
#576=PRODUCT_CONTEXT('part definition',#575,'mechanical');
#577=PRODUCT('door','door',$,(#576));
#578=PRESENTATION_STYLE_ASSIGNMENT((#579));
#579=SURFACE_STYLE_USAGE(.BOTH.,#582);
#580=SURFACE_STYLE_RENDERING_WITH_PROPERTIES($,#586,(#581));
#581=SURFACE_STYLE_TRANSPARENT(0.);
#582=SURFACE_SIDE_STYLE('',(#583,#580));
#583=SURFACE_STYLE_FILL_AREA(#584);
#584=FILL_AREA_STYLE('',(#585));
#585=FILL_AREA_STYLE_COLOUR('',#586);
#586=COLOUR_RGB('',0.749019607843137,0.749019607843137,0.749019607843137);
ENDSEC;
END-ISO-10303-21;
