ISO-10303-21;
HEADER;
/* Generated by software containing ST-Developer
 * from STEP Tools, Inc. (www.steptools.com) 
 */

FILE_DESCRIPTION(
/* description */ (''),
/* implementation_level */ '2;1');

FILE_NAME(
/* name */ 'frame.stp',
/* time_stamp */ '2025-12-14T03:38:56+08:00',
/* author */ ('user'),
/* organization */ (''),
/* preprocessor_version */ 'ST-DEVELOPER v20',
/* originating_system */ 'Autodesk Inventor 2025',
/* authorisation */ '');

FILE_SCHEMA (('AUTOMOTIVE_DESIGN { 1 0 10303 214 3 1 1 }'));
ENDSEC;

DATA;
#10=MECHANICAL_DESIGN_GEOMETRIC_PRESENTATION_REPRESENTATION('',(#22,#23,
#24,#25,#26,#27,#28),#1197);
#11=GEOMETRICALLY_BOUNDED_WIREFRAME_SHAPE_REPRESENTATION('',(#12),#1196);
#12=GEOMETRIC_CURVE_SET('\X2\83495716\X0\1',(#16,#17,#18,#19,#20,#21,#1192,
#1193));
#13=SHAPE_REPRESENTATION_RELATIONSHIP('SRR','None',#1204,#15);
#14=SHAPE_REPRESENTATION_RELATIONSHIP('SRR','None',#1204,#11);
#15=ADVANCED_BREP_SHAPE_REPRESENTATION('',(#29),#1196);
#16=POLYLINE('',(#1180,#1181));
#17=POLYLINE('',(#1182,#1183));
#18=POLYLINE('',(#1184,#1185));
#19=POLYLINE('',(#1186,#1187));
#20=POLYLINE('',(#1188,#1189));
#21=POLYLINE('',(#1190,#1191));
#22=STYLED_ITEM('',(#1213),#29);
#23=STYLED_ITEM('',(#1214),#16);
#24=STYLED_ITEM('',(#1214),#17);
#25=STYLED_ITEM('',(#1214),#18);
#26=STYLED_ITEM('',(#1214),#19);
#27=STYLED_ITEM('',(#1214),#20);
#28=STYLED_ITEM('',(#1214),#21);
#29=MANIFOLD_SOLID_BREP('\X2\5BE69AD4\X0\1',#720);
#30=FACE_BOUND('',#116,.T.);
#31=FACE_BOUND('',#117,.T.);
#32=FACE_BOUND('',#124,.T.);
#33=FACE_BOUND('',#129,.T.);
#34=FACE_BOUND('',#138,.T.);
#35=FACE_BOUND('',#140,.T.);
#36=FACE_BOUND('',#141,.T.);
#37=FACE_BOUND('',#145,.T.);
#38=PLANE('',#760);
#39=PLANE('',#764);
#40=PLANE('',#765);
#41=PLANE('',#766);
#42=PLANE('',#767);
#43=PLANE('',#768);
#44=PLANE('',#769);
#45=PLANE('',#770);
#46=PLANE('',#771);
#47=PLANE('',#772);
#48=PLANE('',#773);
#49=PLANE('',#774);
#50=PLANE('',#775);
#51=PLANE('',#776);
#52=PLANE('',#778);
#53=PLANE('',#779);
#54=PLANE('',#780);
#55=PLANE('',#781);
#56=PLANE('',#783);
#57=PLANE('',#788);
#58=PLANE('',#789);
#59=PLANE('',#790);
#60=PLANE('',#791);
#61=PLANE('',#792);
#62=PLANE('',#793);
#63=PLANE('',#794);
#64=PLANE('',#795);
#65=PLANE('',#796);
#66=FACE_OUTER_BOUND('',#102,.T.);
#67=FACE_OUTER_BOUND('',#103,.T.);
#68=FACE_OUTER_BOUND('',#104,.T.);
#69=FACE_OUTER_BOUND('',#105,.T.);
#70=FACE_OUTER_BOUND('',#106,.T.);
#71=FACE_OUTER_BOUND('',#107,.T.);
#72=FACE_OUTER_BOUND('',#108,.T.);
#73=FACE_OUTER_BOUND('',#109,.T.);
#74=FACE_OUTER_BOUND('',#110,.T.);
#75=FACE_OUTER_BOUND('',#111,.T.);
#76=FACE_OUTER_BOUND('',#112,.T.);
#77=FACE_OUTER_BOUND('',#113,.T.);
#78=FACE_OUTER_BOUND('',#114,.T.);
#79=FACE_OUTER_BOUND('',#115,.T.);
#80=FACE_OUTER_BOUND('',#118,.T.);
#81=FACE_OUTER_BOUND('',#119,.T.);
#82=FACE_OUTER_BOUND('',#120,.T.);
#83=FACE_OUTER_BOUND('',#121,.T.);
#84=FACE_OUTER_BOUND('',#122,.T.);
#85=FACE_OUTER_BOUND('',#123,.T.);
#86=FACE_OUTER_BOUND('',#125,.T.);
#87=FACE_OUTER_BOUND('',#126,.T.);
#88=FACE_OUTER_BOUND('',#127,.T.);
#89=FACE_OUTER_BOUND('',#128,.T.);
#90=FACE_OUTER_BOUND('',#130,.T.);
#91=FACE_OUTER_BOUND('',#131,.T.);
#92=FACE_OUTER_BOUND('',#132,.T.);
#93=FACE_OUTER_BOUND('',#133,.T.);
#94=FACE_OUTER_BOUND('',#134,.T.);
#95=FACE_OUTER_BOUND('',#135,.T.);
#96=FACE_OUTER_BOUND('',#136,.T.);
#97=FACE_OUTER_BOUND('',#137,.T.);
#98=FACE_OUTER_BOUND('',#139,.T.);
#99=FACE_OUTER_BOUND('',#142,.T.);
#100=FACE_OUTER_BOUND('',#143,.T.);
#101=FACE_OUTER_BOUND('',#144,.T.);
#102=EDGE_LOOP('',(#480,#481,#482,#483));
#103=EDGE_LOOP('',(#484,#485,#486,#487));
#104=EDGE_LOOP('',(#488,#489,#490,#491,#492));
#105=EDGE_LOOP('',(#493,#494,#495,#496,#497));
#106=EDGE_LOOP('',(#498,#499,#500,#501));
#107=EDGE_LOOP('',(#502));
#108=EDGE_LOOP('',(#503,#504,#505,#506));
#109=EDGE_LOOP('',(#507));
#110=EDGE_LOOP('',(#508,#509,#510,#511));
#111=EDGE_LOOP('',(#512,#513,#514,#515));
#112=EDGE_LOOP('',(#516,#517,#518,#519,#520));
#113=EDGE_LOOP('',(#521,#522,#523,#524));
#114=EDGE_LOOP('',(#525,#526,#527,#528,#529));
#115=EDGE_LOOP('',(#530,#531,#532,#533,#534,#535,#536,#537,#538,#539,#540,
#541,#542,#543,#544,#545));
#116=EDGE_LOOP('',(#546));
#117=EDGE_LOOP('',(#547));
#118=EDGE_LOOP('',(#548,#549,#550,#551));
#119=EDGE_LOOP('',(#552,#553,#554,#555,#556,#557));
#120=EDGE_LOOP('',(#558,#559,#560,#561));
#121=EDGE_LOOP('',(#562,#563,#564,#565));
#122=EDGE_LOOP('',(#566,#567,#568,#569));
#123=EDGE_LOOP('',(#570,#571,#572,#573,#574,#575,#576,#577));
#124=EDGE_LOOP('',(#578));
#125=EDGE_LOOP('',(#579,#580,#581,#582));
#126=EDGE_LOOP('',(#583,#584,#585,#586,#587,#588,#589,#590));
#127=EDGE_LOOP('',(#591,#592,#593,#594,#595,#596));
#128=EDGE_LOOP('',(#597,#598,#599,#600,#601,#602));
#129=EDGE_LOOP('',(#603));
#130=EDGE_LOOP('',(#604,#605,#606,#607,#608,#609));
#131=EDGE_LOOP('',(#610,#611,#612,#613));
#132=EDGE_LOOP('',(#614,#615,#616,#617));
#133=EDGE_LOOP('',(#618,#619,#620,#621,#622,#623,#624,#625));
#134=EDGE_LOOP('',(#626,#627,#628,#629,#630,#631));
#135=EDGE_LOOP('',(#632,#633,#634,#635));
#136=EDGE_LOOP('',(#636,#637,#638,#639));
#137=EDGE_LOOP('',(#640,#641,#642,#643,#644,#645));
#138=EDGE_LOOP('',(#646));
#139=EDGE_LOOP('',(#647,#648,#649,#650));
#140=EDGE_LOOP('',(#651,#652,#653,#654));
#141=EDGE_LOOP('',(#655,#656,#657,#658));
#142=EDGE_LOOP('',(#659,#660,#661,#662));
#143=EDGE_LOOP('',(#663,#664,#665,#666));
#144=EDGE_LOOP('',(#667,#668,#669,#670,#671,#672,#673,#674));
#145=EDGE_LOOP('',(#675));
#146=CIRCLE('',#744,1.5);
#147=CIRCLE('',#745,1.5);
#148=CIRCLE('',#747,1.5);
#149=CIRCLE('',#748,1.5);
#150=CIRCLE('',#750,1.5);
#151=CIRCLE('',#751,1.5);
#152=CIRCLE('',#752,1.5);
#153=CIRCLE('',#754,1.5);
#154=CIRCLE('',#755,1.5);
#155=CIRCLE('',#756,1.5);
#156=CIRCLE('',#758,1.5);
#157=CIRCLE('',#759,1.5);
#158=CIRCLE('',#762,1.5);
#159=CIRCLE('',#763,1.5);
#160=CIRCLE('',#777,1.25);
#161=CIRCLE('',#782,1.25);
#162=CIRCLE('',#785,1.25);
#163=CIRCLE('',#786,1.25);
#164=LINE('',#991,#244);
#165=LINE('',#995,#245);
#166=LINE('',#1000,#246);
#167=LINE('',#1004,#247);
#168=LINE('',#1010,#248);
#169=LINE('',#1016,#249);
#170=LINE('',#1022,#250);
#171=LINE('',#1029,#251);
#172=LINE('',#1034,#252);
#173=LINE('',#1036,#253);
#174=LINE('',#1037,#254);
#175=LINE('',#1040,#255);
#176=LINE('',#1042,#256);
#177=LINE('',#1043,#257);
#178=LINE('',#1046,#258);
#179=LINE('',#1047,#259);
#180=LINE('',#1050,#260);
#181=LINE('',#1051,#261);
#182=LINE('',#1053,#262);
#183=LINE('',#1054,#263);
#184=LINE('',#1056,#264);
#185=LINE('',#1058,#265);
#186=LINE('',#1060,#266);
#187=LINE('',#1062,#267);
#188=LINE('',#1064,#268);
#189=LINE('',#1066,#269);
#190=LINE('',#1068,#270);
#191=LINE('',#1070,#271);
#192=LINE('',#1072,#272);
#193=LINE('',#1073,#273);
#194=LINE('',#1077,#274);
#195=LINE('',#1079,#275);
#196=LINE('',#1081,#276);
#197=LINE('',#1082,#277);
#198=LINE('',#1086,#278);
#199=LINE('',#1087,#279);
#200=LINE('',#1088,#280);
#201=LINE('',#1092,#281);
#202=LINE('',#1093,#282);
#203=LINE('',#1094,#283);
#204=LINE('',#1097,#284);
#205=LINE('',#1099,#285);
#206=LINE('',#1100,#286);
#207=LINE('',#1103,#287);
#208=LINE('',#1105,#288);
#209=LINE('',#1107,#289);
#210=LINE('',#1109,#290);
#211=LINE('',#1111,#291);
#212=LINE('',#1112,#292);
#213=LINE('',#1117,#293);
#214=LINE('',#1119,#294);
#215=LINE('',#1120,#295);
#216=LINE('',#1123,#296);
#217=LINE('',#1125,#297);
#218=LINE('',#1126,#298);
#219=LINE('',#1128,#299);
#220=LINE('',#1129,#300);
#221=LINE('',#1132,#301);
#222=LINE('',#1134,#302);
#223=LINE('',#1136,#303);
#224=LINE('',#1137,#304);
#225=LINE('',#1140,#305);
#226=LINE('',#1141,#306);
#227=LINE('',#1145,#307);
#228=LINE('',#1150,#308);
#229=LINE('',#1153,#309);
#230=LINE('',#1155,#310);
#231=LINE('',#1156,#311);
#232=LINE('',#1157,#312);
#233=LINE('',#1158,#313);
#234=LINE('',#1160,#314);
#235=LINE('',#1163,#315);
#236=LINE('',#1164,#316);
#237=LINE('',#1166,#317);
#238=LINE('',#1168,#318);
#239=LINE('',#1172,#319);
#240=LINE('',#1173,#320);
#241=LINE('',#1174,#321);
#242=LINE('',#1176,#322);
#243=LINE('',#1178,#323);
#244=VECTOR('',#801,1.5);
#245=VECTOR('',#804,10.);
#246=VECTOR('',#809,1.5);
#247=VECTOR('',#812,10.);
#248=VECTOR('',#821,10.);
#249=VECTOR('',#830,10.);
#250=VECTOR('',#837,1.5);
#251=VECTOR('',#846,1.5);
#252=VECTOR('',#853,10.);
#253=VECTOR('',#854,10.);
#254=VECTOR('',#855,10.);
#255=VECTOR('',#858,10.);
#256=VECTOR('',#859,10.);
#257=VECTOR('',#860,10.);
#258=VECTOR('',#863,10.);
#259=VECTOR('',#864,10.);
#260=VECTOR('',#867,10.);
#261=VECTOR('',#868,10.);
#262=VECTOR('',#871,10.);
#263=VECTOR('',#872,10.);
#264=VECTOR('',#875,10.);
#265=VECTOR('',#876,10.);
#266=VECTOR('',#877,10.);
#267=VECTOR('',#878,10.);
#268=VECTOR('',#879,10.);
#269=VECTOR('',#880,10.);
#270=VECTOR('',#881,10.);
#271=VECTOR('',#882,10.);
#272=VECTOR('',#883,10.);
#273=VECTOR('',#884,10.);
#274=VECTOR('',#889,10.);
#275=VECTOR('',#890,10.);
#276=VECTOR('',#891,10.);
#277=VECTOR('',#892,10.);
#278=VECTOR('',#895,10.);
#279=VECTOR('',#896,10.);
#280=VECTOR('',#897,10.);
#281=VECTOR('',#900,10.);
#282=VECTOR('',#901,10.);
#283=VECTOR('',#902,10.);
#284=VECTOR('',#905,10.);
#285=VECTOR('',#906,10.);
#286=VECTOR('',#907,10.);
#287=VECTOR('',#910,10.);
#288=VECTOR('',#911,10.);
#289=VECTOR('',#912,10.);
#290=VECTOR('',#913,10.);
#291=VECTOR('',#914,10.);
#292=VECTOR('',#915,10.);
#293=VECTOR('',#920,10.);
#294=VECTOR('',#921,10.);
#295=VECTOR('',#922,10.);
#296=VECTOR('',#925,10.);
#297=VECTOR('',#926,10.);
#298=VECTOR('',#927,10.);
#299=VECTOR('',#928,10.);
#300=VECTOR('',#929,10.);
#301=VECTOR('',#932,10.);
#302=VECTOR('',#933,10.);
#303=VECTOR('',#934,10.);
#304=VECTOR('',#935,10.);
#305=VECTOR('',#938,10.);
#306=VECTOR('',#939,10.);
#307=VECTOR('',#944,10.);
#308=VECTOR('',#949,1.25);
#309=VECTOR('',#954,1.25);
#310=VECTOR('',#957,10.);
#311=VECTOR('',#958,10.);
#312=VECTOR('',#959,10.);
#313=VECTOR('',#960,10.);
#314=VECTOR('',#963,10.);
#315=VECTOR('',#966,10.);
#316=VECTOR('',#967,10.);
#317=VECTOR('',#970,10.);
#318=VECTOR('',#973,10.);
#319=VECTOR('',#976,10.);
#320=VECTOR('',#977,10.);
#321=VECTOR('',#978,10.);
#322=VECTOR('',#981,10.);
#323=VECTOR('',#984,10.);
#324=VERTEX_POINT('',#989);
#325=VERTEX_POINT('',#990);
#326=VERTEX_POINT('',#992);
#327=VERTEX_POINT('',#994);
#328=VERTEX_POINT('',#998);
#329=VERTEX_POINT('',#999);
#330=VERTEX_POINT('',#1001);
#331=VERTEX_POINT('',#1003);
#332=VERTEX_POINT('',#1007);
#333=VERTEX_POINT('',#1013);
#334=VERTEX_POINT('',#1019);
#335=VERTEX_POINT('',#1021);
#336=VERTEX_POINT('',#1026);
#337=VERTEX_POINT('',#1028);
#338=VERTEX_POINT('',#1033);
#339=VERTEX_POINT('',#1035);
#340=VERTEX_POINT('',#1039);
#341=VERTEX_POINT('',#1041);
#342=VERTEX_POINT('',#1045);
#343=VERTEX_POINT('',#1049);
#344=VERTEX_POINT('',#1057);
#345=VERTEX_POINT('',#1059);
#346=VERTEX_POINT('',#1061);
#347=VERTEX_POINT('',#1063);
#348=VERTEX_POINT('',#1065);
#349=VERTEX_POINT('',#1067);
#350=VERTEX_POINT('',#1069);
#351=VERTEX_POINT('',#1071);
#352=VERTEX_POINT('',#1076);
#353=VERTEX_POINT('',#1078);
#354=VERTEX_POINT('',#1080);
#355=VERTEX_POINT('',#1084);
#356=VERTEX_POINT('',#1085);
#357=VERTEX_POINT('',#1090);
#358=VERTEX_POINT('',#1091);
#359=VERTEX_POINT('',#1096);
#360=VERTEX_POINT('',#1098);
#361=VERTEX_POINT('',#1102);
#362=VERTEX_POINT('',#1104);
#363=VERTEX_POINT('',#1106);
#364=VERTEX_POINT('',#1108);
#365=VERTEX_POINT('',#1110);
#366=VERTEX_POINT('',#1113);
#367=VERTEX_POINT('',#1116);
#368=VERTEX_POINT('',#1118);
#369=VERTEX_POINT('',#1122);
#370=VERTEX_POINT('',#1124);
#371=VERTEX_POINT('',#1127);
#372=VERTEX_POINT('',#1131);
#373=VERTEX_POINT('',#1133);
#374=VERTEX_POINT('',#1135);
#375=VERTEX_POINT('',#1139);
#376=VERTEX_POINT('',#1142);
#377=VERTEX_POINT('',#1147);
#378=VERTEX_POINT('',#1149);
#379=VERTEX_POINT('',#1162);
#380=VERTEX_POINT('',#1170);
#381=VERTEX_POINT('',#1171);
#382=EDGE_CURVE('',#324,#325,#164,.T.);
#383=EDGE_CURVE('',#326,#324,#146,.T.);
#384=EDGE_CURVE('',#326,#327,#165,.T.);
#385=EDGE_CURVE('',#325,#327,#147,.T.);
#386=EDGE_CURVE('',#328,#329,#166,.T.);
#387=EDGE_CURVE('',#330,#328,#148,.T.);
#388=EDGE_CURVE('',#330,#331,#167,.T.);
#389=EDGE_CURVE('',#329,#331,#149,.T.);
#390=EDGE_CURVE('',#332,#329,#150,.T.);
#391=EDGE_CURVE('',#331,#332,#151,.T.);
#392=EDGE_CURVE('',#330,#331,#168,.T.);
#393=EDGE_CURVE('',#328,#330,#152,.T.);
#394=EDGE_CURVE('',#333,#325,#153,.T.);
#395=EDGE_CURVE('',#327,#333,#154,.T.);
#396=EDGE_CURVE('',#326,#327,#169,.T.);
#397=EDGE_CURVE('',#324,#326,#155,.T.);
#398=EDGE_CURVE('',#334,#334,#156,.T.);
#399=EDGE_CURVE('',#334,#335,#170,.T.);
#400=EDGE_CURVE('',#335,#335,#157,.T.);
#401=EDGE_CURVE('',#336,#336,#158,.T.);
#402=EDGE_CURVE('',#336,#337,#171,.T.);
#403=EDGE_CURVE('',#337,#337,#159,.T.);
#404=EDGE_CURVE('',#338,#326,#172,.T.);
#405=EDGE_CURVE('',#339,#338,#173,.T.);
#406=EDGE_CURVE('',#339,#327,#174,.T.);
#407=EDGE_CURVE('',#331,#340,#175,.T.);
#408=EDGE_CURVE('',#341,#340,#176,.T.);
#409=EDGE_CURVE('',#330,#341,#177,.T.);
#410=EDGE_CURVE('',#342,#339,#178,.T.);
#411=EDGE_CURVE('',#333,#342,#179,.T.);
#412=EDGE_CURVE('',#343,#332,#180,.T.);
#413=EDGE_CURVE('',#340,#343,#181,.T.);
#414=EDGE_CURVE('',#327,#331,#182,.T.);
#415=EDGE_CURVE('',#332,#333,#183,.T.);
#416=EDGE_CURVE('',#326,#330,#184,.T.);
#417=EDGE_CURVE('',#344,#341,#185,.T.);
#418=EDGE_CURVE('',#345,#344,#186,.T.);
#419=EDGE_CURVE('',#346,#345,#187,.T.);
#420=EDGE_CURVE('',#347,#346,#188,.T.);
#421=EDGE_CURVE('',#348,#347,#189,.T.);
#422=EDGE_CURVE('',#349,#348,#190,.T.);
#423=EDGE_CURVE('',#350,#349,#191,.T.);
#424=EDGE_CURVE('',#351,#350,#192,.T.);
#425=EDGE_CURVE('',#338,#351,#193,.T.);
#426=EDGE_CURVE('',#343,#352,#194,.T.);
#427=EDGE_CURVE('',#353,#352,#195,.T.);
#428=EDGE_CURVE('',#353,#354,#196,.F.);
#429=EDGE_CURVE('',#354,#341,#197,.F.);
#430=EDGE_CURVE('',#355,#356,#198,.T.);
#431=EDGE_CURVE('',#350,#355,#199,.T.);
#432=EDGE_CURVE('',#356,#349,#200,.T.);
#433=EDGE_CURVE('',#357,#358,#201,.T.);
#434=EDGE_CURVE('',#346,#357,#202,.T.);
#435=EDGE_CURVE('',#358,#345,#203,.T.);
#436=EDGE_CURVE('',#359,#347,#204,.T.);
#437=EDGE_CURVE('',#360,#359,#205,.T.);
#438=EDGE_CURVE('',#348,#360,#206,.T.);
#439=EDGE_CURVE('',#344,#361,#207,.T.);
#440=EDGE_CURVE('',#362,#361,#208,.T.);
#441=EDGE_CURVE('',#363,#362,#209,.T.);
#442=EDGE_CURVE('',#364,#363,#210,.T.);
#443=EDGE_CURVE('',#364,#365,#211,.T.);
#444=EDGE_CURVE('',#358,#365,#212,.T.);
#445=EDGE_CURVE('',#366,#366,#160,.T.);
#446=EDGE_CURVE('',#361,#367,#213,.T.);
#447=EDGE_CURVE('',#367,#368,#214,.T.);
#448=EDGE_CURVE('',#368,#362,#215,.T.);
#449=EDGE_CURVE('',#356,#369,#216,.T.);
#450=EDGE_CURVE('',#369,#370,#217,.T.);
#451=EDGE_CURVE('',#370,#357,#218,.T.);
#452=EDGE_CURVE('',#365,#371,#219,.T.);
#453=EDGE_CURVE('',#371,#355,#220,.T.);
#454=EDGE_CURVE('',#338,#372,#221,.F.);
#455=EDGE_CURVE('',#373,#372,#222,.F.);
#456=EDGE_CURVE('',#374,#373,#223,.T.);
#457=EDGE_CURVE('',#374,#342,#224,.T.);
#458=EDGE_CURVE('',#375,#370,#225,.F.);
#459=EDGE_CURVE('',#359,#375,#226,.T.);
#460=EDGE_CURVE('',#376,#376,#161,.T.);
#461=EDGE_CURVE('',#374,#352,#227,.T.);
#462=EDGE_CURVE('',#377,#377,#162,.T.);
#463=EDGE_CURVE('',#377,#378,#228,.T.);
#464=EDGE_CURVE('',#378,#378,#163,.T.);
#465=EDGE_CURVE('',#376,#366,#229,.T.);
#466=EDGE_CURVE('',#338,#326,#230,.T.);
#467=EDGE_CURVE('',#367,#351,#231,.T.);
#468=EDGE_CURVE('',#330,#341,#232,.T.);
#469=EDGE_CURVE('',#326,#330,#233,.T.);
#470=EDGE_CURVE('',#372,#354,#234,.F.);
#471=EDGE_CURVE('',#369,#379,#235,.F.);
#472=EDGE_CURVE('',#375,#379,#236,.T.);
#473=EDGE_CURVE('',#373,#353,#237,.T.);
#474=EDGE_CURVE('',#379,#360,#238,.T.);
#475=EDGE_CURVE('',#380,#381,#239,.T.);
#476=EDGE_CURVE('',#381,#364,#240,.T.);
#477=EDGE_CURVE('',#363,#380,#241,.T.);
#478=EDGE_CURVE('',#371,#381,#242,.T.);
#479=EDGE_CURVE('',#380,#368,#243,.T.);
#480=ORIENTED_EDGE('',*,*,#382,.F.);
#481=ORIENTED_EDGE('',*,*,#383,.F.);
#482=ORIENTED_EDGE('',*,*,#384,.T.);
#483=ORIENTED_EDGE('',*,*,#385,.F.);
#484=ORIENTED_EDGE('',*,*,#386,.F.);
#485=ORIENTED_EDGE('',*,*,#387,.F.);
#486=ORIENTED_EDGE('',*,*,#388,.T.);
#487=ORIENTED_EDGE('',*,*,#389,.F.);
#488=ORIENTED_EDGE('',*,*,#386,.T.);
#489=ORIENTED_EDGE('',*,*,#390,.F.);
#490=ORIENTED_EDGE('',*,*,#391,.F.);
#491=ORIENTED_EDGE('',*,*,#392,.F.);
#492=ORIENTED_EDGE('',*,*,#393,.F.);
#493=ORIENTED_EDGE('',*,*,#382,.T.);
#494=ORIENTED_EDGE('',*,*,#394,.F.);
#495=ORIENTED_EDGE('',*,*,#395,.F.);
#496=ORIENTED_EDGE('',*,*,#396,.F.);
#497=ORIENTED_EDGE('',*,*,#397,.F.);
#498=ORIENTED_EDGE('',*,*,#398,.F.);
#499=ORIENTED_EDGE('',*,*,#399,.T.);
#500=ORIENTED_EDGE('',*,*,#400,.T.);
#501=ORIENTED_EDGE('',*,*,#399,.F.);
#502=ORIENTED_EDGE('',*,*,#400,.F.);
#503=ORIENTED_EDGE('',*,*,#401,.F.);
#504=ORIENTED_EDGE('',*,*,#402,.T.);
#505=ORIENTED_EDGE('',*,*,#403,.T.);
#506=ORIENTED_EDGE('',*,*,#402,.F.);
#507=ORIENTED_EDGE('',*,*,#403,.F.);
#508=ORIENTED_EDGE('',*,*,#384,.F.);
#509=ORIENTED_EDGE('',*,*,#404,.F.);
#510=ORIENTED_EDGE('',*,*,#405,.F.);
#511=ORIENTED_EDGE('',*,*,#406,.T.);
#512=ORIENTED_EDGE('',*,*,#392,.T.);
#513=ORIENTED_EDGE('',*,*,#407,.T.);
#514=ORIENTED_EDGE('',*,*,#408,.F.);
#515=ORIENTED_EDGE('',*,*,#409,.F.);
#516=ORIENTED_EDGE('',*,*,#394,.T.);
#517=ORIENTED_EDGE('',*,*,#385,.T.);
#518=ORIENTED_EDGE('',*,*,#406,.F.);
#519=ORIENTED_EDGE('',*,*,#410,.F.);
#520=ORIENTED_EDGE('',*,*,#411,.F.);
#521=ORIENTED_EDGE('',*,*,#391,.T.);
#522=ORIENTED_EDGE('',*,*,#412,.F.);
#523=ORIENTED_EDGE('',*,*,#413,.F.);
#524=ORIENTED_EDGE('',*,*,#407,.F.);
#525=ORIENTED_EDGE('',*,*,#390,.T.);
#526=ORIENTED_EDGE('',*,*,#389,.T.);
#527=ORIENTED_EDGE('',*,*,#414,.F.);
#528=ORIENTED_EDGE('',*,*,#395,.T.);
#529=ORIENTED_EDGE('',*,*,#415,.F.);
#530=ORIENTED_EDGE('',*,*,#404,.T.);
#531=ORIENTED_EDGE('',*,*,#383,.T.);
#532=ORIENTED_EDGE('',*,*,#397,.T.);
#533=ORIENTED_EDGE('',*,*,#416,.T.);
#534=ORIENTED_EDGE('',*,*,#387,.T.);
#535=ORIENTED_EDGE('',*,*,#393,.T.);
#536=ORIENTED_EDGE('',*,*,#409,.T.);
#537=ORIENTED_EDGE('',*,*,#417,.F.);
#538=ORIENTED_EDGE('',*,*,#418,.F.);
#539=ORIENTED_EDGE('',*,*,#419,.F.);
#540=ORIENTED_EDGE('',*,*,#420,.F.);
#541=ORIENTED_EDGE('',*,*,#421,.F.);
#542=ORIENTED_EDGE('',*,*,#422,.F.);
#543=ORIENTED_EDGE('',*,*,#423,.F.);
#544=ORIENTED_EDGE('',*,*,#424,.F.);
#545=ORIENTED_EDGE('',*,*,#425,.F.);
#546=ORIENTED_EDGE('',*,*,#401,.T.);
#547=ORIENTED_EDGE('',*,*,#398,.T.);
#548=ORIENTED_EDGE('',*,*,#388,.F.);
#549=ORIENTED_EDGE('',*,*,#416,.F.);
#550=ORIENTED_EDGE('',*,*,#396,.T.);
#551=ORIENTED_EDGE('',*,*,#414,.T.);
#552=ORIENTED_EDGE('',*,*,#408,.T.);
#553=ORIENTED_EDGE('',*,*,#413,.T.);
#554=ORIENTED_EDGE('',*,*,#426,.T.);
#555=ORIENTED_EDGE('',*,*,#427,.F.);
#556=ORIENTED_EDGE('',*,*,#428,.T.);
#557=ORIENTED_EDGE('',*,*,#429,.T.);
#558=ORIENTED_EDGE('',*,*,#430,.F.);
#559=ORIENTED_EDGE('',*,*,#431,.F.);
#560=ORIENTED_EDGE('',*,*,#423,.T.);
#561=ORIENTED_EDGE('',*,*,#432,.F.);
#562=ORIENTED_EDGE('',*,*,#433,.F.);
#563=ORIENTED_EDGE('',*,*,#434,.F.);
#564=ORIENTED_EDGE('',*,*,#419,.T.);
#565=ORIENTED_EDGE('',*,*,#435,.F.);
#566=ORIENTED_EDGE('',*,*,#421,.T.);
#567=ORIENTED_EDGE('',*,*,#436,.F.);
#568=ORIENTED_EDGE('',*,*,#437,.F.);
#569=ORIENTED_EDGE('',*,*,#438,.F.);
#570=ORIENTED_EDGE('',*,*,#435,.T.);
#571=ORIENTED_EDGE('',*,*,#418,.T.);
#572=ORIENTED_EDGE('',*,*,#439,.T.);
#573=ORIENTED_EDGE('',*,*,#440,.F.);
#574=ORIENTED_EDGE('',*,*,#441,.F.);
#575=ORIENTED_EDGE('',*,*,#442,.F.);
#576=ORIENTED_EDGE('',*,*,#443,.T.);
#577=ORIENTED_EDGE('',*,*,#444,.F.);
#578=ORIENTED_EDGE('',*,*,#445,.T.);
#579=ORIENTED_EDGE('',*,*,#446,.T.);
#580=ORIENTED_EDGE('',*,*,#447,.T.);
#581=ORIENTED_EDGE('',*,*,#448,.T.);
#582=ORIENTED_EDGE('',*,*,#440,.T.);
#583=ORIENTED_EDGE('',*,*,#430,.T.);
#584=ORIENTED_EDGE('',*,*,#449,.T.);
#585=ORIENTED_EDGE('',*,*,#450,.T.);
#586=ORIENTED_EDGE('',*,*,#451,.T.);
#587=ORIENTED_EDGE('',*,*,#433,.T.);
#588=ORIENTED_EDGE('',*,*,#444,.T.);
#589=ORIENTED_EDGE('',*,*,#452,.T.);
#590=ORIENTED_EDGE('',*,*,#453,.T.);
#591=ORIENTED_EDGE('',*,*,#405,.T.);
#592=ORIENTED_EDGE('',*,*,#454,.T.);
#593=ORIENTED_EDGE('',*,*,#455,.F.);
#594=ORIENTED_EDGE('',*,*,#456,.F.);
#595=ORIENTED_EDGE('',*,*,#457,.T.);
#596=ORIENTED_EDGE('',*,*,#410,.T.);
#597=ORIENTED_EDGE('',*,*,#451,.F.);
#598=ORIENTED_EDGE('',*,*,#458,.F.);
#599=ORIENTED_EDGE('',*,*,#459,.F.);
#600=ORIENTED_EDGE('',*,*,#436,.T.);
#601=ORIENTED_EDGE('',*,*,#420,.T.);
#602=ORIENTED_EDGE('',*,*,#434,.T.);
#603=ORIENTED_EDGE('',*,*,#460,.T.);
#604=ORIENTED_EDGE('',*,*,#412,.T.);
#605=ORIENTED_EDGE('',*,*,#415,.T.);
#606=ORIENTED_EDGE('',*,*,#411,.T.);
#607=ORIENTED_EDGE('',*,*,#457,.F.);
#608=ORIENTED_EDGE('',*,*,#461,.T.);
#609=ORIENTED_EDGE('',*,*,#426,.F.);
#610=ORIENTED_EDGE('',*,*,#462,.F.);
#611=ORIENTED_EDGE('',*,*,#463,.T.);
#612=ORIENTED_EDGE('',*,*,#464,.F.);
#613=ORIENTED_EDGE('',*,*,#463,.F.);
#614=ORIENTED_EDGE('',*,*,#460,.F.);
#615=ORIENTED_EDGE('',*,*,#465,.T.);
#616=ORIENTED_EDGE('',*,*,#445,.F.);
#617=ORIENTED_EDGE('',*,*,#465,.F.);
#618=ORIENTED_EDGE('',*,*,#466,.F.);
#619=ORIENTED_EDGE('',*,*,#425,.T.);
#620=ORIENTED_EDGE('',*,*,#467,.F.);
#621=ORIENTED_EDGE('',*,*,#446,.F.);
#622=ORIENTED_EDGE('',*,*,#439,.F.);
#623=ORIENTED_EDGE('',*,*,#417,.T.);
#624=ORIENTED_EDGE('',*,*,#468,.F.);
#625=ORIENTED_EDGE('',*,*,#469,.F.);
#626=ORIENTED_EDGE('',*,*,#466,.T.);
#627=ORIENTED_EDGE('',*,*,#469,.T.);
#628=ORIENTED_EDGE('',*,*,#468,.T.);
#629=ORIENTED_EDGE('',*,*,#429,.F.);
#630=ORIENTED_EDGE('',*,*,#470,.F.);
#631=ORIENTED_EDGE('',*,*,#454,.F.);
#632=ORIENTED_EDGE('',*,*,#471,.T.);
#633=ORIENTED_EDGE('',*,*,#472,.F.);
#634=ORIENTED_EDGE('',*,*,#458,.T.);
#635=ORIENTED_EDGE('',*,*,#450,.F.);
#636=ORIENTED_EDGE('',*,*,#428,.F.);
#637=ORIENTED_EDGE('',*,*,#473,.F.);
#638=ORIENTED_EDGE('',*,*,#455,.T.);
#639=ORIENTED_EDGE('',*,*,#470,.T.);
#640=ORIENTED_EDGE('',*,*,#438,.T.);
#641=ORIENTED_EDGE('',*,*,#474,.F.);
#642=ORIENTED_EDGE('',*,*,#471,.F.);
#643=ORIENTED_EDGE('',*,*,#449,.F.);
#644=ORIENTED_EDGE('',*,*,#432,.T.);
#645=ORIENTED_EDGE('',*,*,#422,.T.);
#646=ORIENTED_EDGE('',*,*,#464,.T.);
#647=ORIENTED_EDGE('',*,*,#475,.T.);
#648=ORIENTED_EDGE('',*,*,#476,.T.);
#649=ORIENTED_EDGE('',*,*,#442,.T.);
#650=ORIENTED_EDGE('',*,*,#477,.T.);
#651=ORIENTED_EDGE('',*,*,#459,.T.);
#652=ORIENTED_EDGE('',*,*,#472,.T.);
#653=ORIENTED_EDGE('',*,*,#474,.T.);
#654=ORIENTED_EDGE('',*,*,#437,.T.);
#655=ORIENTED_EDGE('',*,*,#461,.F.);
#656=ORIENTED_EDGE('',*,*,#456,.T.);
#657=ORIENTED_EDGE('',*,*,#473,.T.);
#658=ORIENTED_EDGE('',*,*,#427,.T.);
#659=ORIENTED_EDGE('',*,*,#478,.F.);
#660=ORIENTED_EDGE('',*,*,#452,.F.);
#661=ORIENTED_EDGE('',*,*,#443,.F.);
#662=ORIENTED_EDGE('',*,*,#476,.F.);
#663=ORIENTED_EDGE('',*,*,#441,.T.);
#664=ORIENTED_EDGE('',*,*,#448,.F.);
#665=ORIENTED_EDGE('',*,*,#479,.F.);
#666=ORIENTED_EDGE('',*,*,#477,.F.);
#667=ORIENTED_EDGE('',*,*,#431,.T.);
#668=ORIENTED_EDGE('',*,*,#453,.F.);
#669=ORIENTED_EDGE('',*,*,#478,.T.);
#670=ORIENTED_EDGE('',*,*,#475,.F.);
#671=ORIENTED_EDGE('',*,*,#479,.T.);
#672=ORIENTED_EDGE('',*,*,#447,.F.);
#673=ORIENTED_EDGE('',*,*,#467,.T.);
#674=ORIENTED_EDGE('',*,*,#424,.T.);
#675=ORIENTED_EDGE('',*,*,#462,.T.);
#676=CYLINDRICAL_SURFACE('',#743,1.5);
#677=CYLINDRICAL_SURFACE('',#746,1.5);
#678=CYLINDRICAL_SURFACE('',#749,1.5);
#679=CYLINDRICAL_SURFACE('',#753,1.5);
#680=CYLINDRICAL_SURFACE('',#757,1.5);
#681=CYLINDRICAL_SURFACE('',#761,1.5);
#682=CYLINDRICAL_SURFACE('',#784,1.25);
#683=CYLINDRICAL_SURFACE('',#787,1.25);
#684=ADVANCED_FACE('',(#66),#676,.F.);
#685=ADVANCED_FACE('',(#67),#677,.F.);
#686=ADVANCED_FACE('',(#68),#678,.F.);
#687=ADVANCED_FACE('',(#69),#679,.F.);
#688=ADVANCED_FACE('',(#70),#680,.F.);
#689=ADVANCED_FACE('',(#71),#38,.T.);
#690=ADVANCED_FACE('',(#72),#681,.F.);
#691=ADVANCED_FACE('',(#73),#39,.T.);
#692=ADVANCED_FACE('',(#74),#40,.T.);
#693=ADVANCED_FACE('',(#75),#41,.T.);
#694=ADVANCED_FACE('',(#76),#42,.T.);
#695=ADVANCED_FACE('',(#77),#43,.T.);
#696=ADVANCED_FACE('',(#78),#44,.T.);
#697=ADVANCED_FACE('',(#79,#30,#31),#45,.F.);
#698=ADVANCED_FACE('',(#80),#46,.T.);
#699=ADVANCED_FACE('',(#81),#47,.F.);
#700=ADVANCED_FACE('',(#82),#48,.F.);
#701=ADVANCED_FACE('',(#83),#49,.F.);
#702=ADVANCED_FACE('',(#84),#50,.T.);
#703=ADVANCED_FACE('',(#85,#32),#51,.T.);
#704=ADVANCED_FACE('',(#86),#52,.T.);
#705=ADVANCED_FACE('',(#87),#53,.T.);
#706=ADVANCED_FACE('',(#88),#54,.F.);
#707=ADVANCED_FACE('',(#89,#33),#55,.F.);
#708=ADVANCED_FACE('',(#90),#56,.T.);
#709=ADVANCED_FACE('',(#91),#682,.F.);
#710=ADVANCED_FACE('',(#92),#683,.F.);
#711=ADVANCED_FACE('',(#93),#57,.F.);
#712=ADVANCED_FACE('',(#94),#58,.F.);
#713=ADVANCED_FACE('',(#95),#59,.F.);
#714=ADVANCED_FACE('',(#96),#60,.F.);
#715=ADVANCED_FACE('',(#97,#34),#61,.F.);
#716=ADVANCED_FACE('',(#98,#35,#36),#62,.T.);
#717=ADVANCED_FACE('',(#99),#63,.T.);
#718=ADVANCED_FACE('',(#100),#64,.T.);
#719=ADVANCED_FACE('',(#101,#37),#65,.T.);
#720=CLOSED_SHELL('',(#684,#685,#686,#687,#688,#689,#690,#691,#692,#693,
#694,#695,#696,#697,#698,#699,#700,#701,#702,#703,#704,#705,#706,#707,#708,
#709,#710,#711,#712,#713,#714,#715,#716,#717,#718,#719));
#721=DERIVED_UNIT_ELEMENT(#724,1.);
#722=DERIVED_UNIT_ELEMENT(#1199,-3.);
#723=DIMENSIONAL_EXPONENTS(0.,1.,0.,0.,0.,0.,0.);
#724=(
CONVERSION_BASED_UNIT('gram',#726)
MASS_UNIT()
NAMED_UNIT(#723)
);
#725=(
MASS_UNIT()
NAMED_UNIT(*)
SI_UNIT(.KILO.,.GRAM.)
);
#726=MASS_MEASURE_WITH_UNIT(MASS_MEASURE(0.001),#725);
#727=DERIVED_UNIT((#721,#722));
#728=MEASURE_REPRESENTATION_ITEM('density measure',
POSITIVE_RATIO_MEASURE(1.),#727);
#729=PROPERTY_DEFINITION_REPRESENTATION(#734,#731);
#730=PROPERTY_DEFINITION_REPRESENTATION(#735,#732);
#731=REPRESENTATION('material name',(#733),#1196);
#732=REPRESENTATION('density',(#728),#1196);
#733=DESCRIPTIVE_REPRESENTATION_ITEM('\X2\4E00822C\X0\','\X2\4E00822C\X0\');
#734=PROPERTY_DEFINITION('material property','material name',#1206);
#735=PROPERTY_DEFINITION('material property','density of part',#1206);
#736=DATE_TIME_ROLE('creation_date');
#737=APPLIED_DATE_AND_TIME_ASSIGNMENT(#738,#736,(#1206));
#738=DATE_AND_TIME(#739,#740);
#739=CALENDAR_DATE(2025,14,12);
#740=LOCAL_TIME(0,0,0.,#741);
#741=COORDINATED_UNIVERSAL_TIME_OFFSET(0,0,.BEHIND.);
#742=AXIS2_PLACEMENT_3D('',#987,#797,#798);
#743=AXIS2_PLACEMENT_3D('',#988,#799,#800);
#744=AXIS2_PLACEMENT_3D('',#993,#802,#803);
#745=AXIS2_PLACEMENT_3D('',#996,#805,#806);
#746=AXIS2_PLACEMENT_3D('',#997,#807,#808);
#747=AXIS2_PLACEMENT_3D('',#1002,#810,#811);
#748=AXIS2_PLACEMENT_3D('',#1005,#813,#814);
#749=AXIS2_PLACEMENT_3D('',#1006,#815,#816);
#750=AXIS2_PLACEMENT_3D('',#1008,#817,#818);
#751=AXIS2_PLACEMENT_3D('',#1009,#819,#820);
#752=AXIS2_PLACEMENT_3D('',#1011,#822,#823);
#753=AXIS2_PLACEMENT_3D('',#1012,#824,#825);
#754=AXIS2_PLACEMENT_3D('',#1014,#826,#827);
#755=AXIS2_PLACEMENT_3D('',#1015,#828,#829);
#756=AXIS2_PLACEMENT_3D('',#1017,#831,#832);
#757=AXIS2_PLACEMENT_3D('',#1018,#833,#834);
#758=AXIS2_PLACEMENT_3D('',#1020,#835,#836);
#759=AXIS2_PLACEMENT_3D('',#1023,#838,#839);
#760=AXIS2_PLACEMENT_3D('',#1024,#840,#841);
#761=AXIS2_PLACEMENT_3D('',#1025,#842,#843);
#762=AXIS2_PLACEMENT_3D('',#1027,#844,#845);
#763=AXIS2_PLACEMENT_3D('',#1030,#847,#848);
#764=AXIS2_PLACEMENT_3D('',#1031,#849,#850);
#765=AXIS2_PLACEMENT_3D('',#1032,#851,#852);
#766=AXIS2_PLACEMENT_3D('',#1038,#856,#857);
#767=AXIS2_PLACEMENT_3D('',#1044,#861,#862);
#768=AXIS2_PLACEMENT_3D('',#1048,#865,#866);
#769=AXIS2_PLACEMENT_3D('',#1052,#869,#870);
#770=AXIS2_PLACEMENT_3D('',#1055,#873,#874);
#771=AXIS2_PLACEMENT_3D('',#1074,#885,#886);
#772=AXIS2_PLACEMENT_3D('',#1075,#887,#888);
#773=AXIS2_PLACEMENT_3D('',#1083,#893,#894);
#774=AXIS2_PLACEMENT_3D('',#1089,#898,#899);
#775=AXIS2_PLACEMENT_3D('',#1095,#903,#904);
#776=AXIS2_PLACEMENT_3D('',#1101,#908,#909);
#777=AXIS2_PLACEMENT_3D('',#1114,#916,#917);
#778=AXIS2_PLACEMENT_3D('',#1115,#918,#919);
#779=AXIS2_PLACEMENT_3D('',#1121,#923,#924);
#780=AXIS2_PLACEMENT_3D('',#1130,#930,#931);
#781=AXIS2_PLACEMENT_3D('',#1138,#936,#937);
#782=AXIS2_PLACEMENT_3D('',#1143,#940,#941);
#783=AXIS2_PLACEMENT_3D('',#1144,#942,#943);
#784=AXIS2_PLACEMENT_3D('',#1146,#945,#946);
#785=AXIS2_PLACEMENT_3D('',#1148,#947,#948);
#786=AXIS2_PLACEMENT_3D('',#1151,#950,#951);
#787=AXIS2_PLACEMENT_3D('',#1152,#952,#953);
#788=AXIS2_PLACEMENT_3D('',#1154,#955,#956);
#789=AXIS2_PLACEMENT_3D('',#1159,#961,#962);
#790=AXIS2_PLACEMENT_3D('',#1161,#964,#965);
#791=AXIS2_PLACEMENT_3D('',#1165,#968,#969);
#792=AXIS2_PLACEMENT_3D('',#1167,#971,#972);
#793=AXIS2_PLACEMENT_3D('',#1169,#974,#975);
#794=AXIS2_PLACEMENT_3D('',#1175,#979,#980);
#795=AXIS2_PLACEMENT_3D('',#1177,#982,#983);
#796=AXIS2_PLACEMENT_3D('',#1179,#985,#986);
#797=DIRECTION('axis',(0.,0.,1.));
#798=DIRECTION('refdir',(1.,0.,0.));
#799=DIRECTION('center_axis',(0.,0.,-1.));
#800=DIRECTION('ref_axis',(1.,7.2801509811451E-17,0.));
#801=DIRECTION('',(0.,0.,-1.));
#802=DIRECTION('center_axis',(0.,0.,-1.));
#803=DIRECTION('ref_axis',(1.,7.2801509811451E-17,0.));
#804=DIRECTION('',(0.,0.,-1.));
#805=DIRECTION('center_axis',(0.,0.,1.));
#806=DIRECTION('ref_axis',(1.,7.2801509811451E-17,0.));
#807=DIRECTION('center_axis',(0.,0.,-1.));
#808=DIRECTION('ref_axis',(1.,7.2801509811451E-17,0.));
#809=DIRECTION('',(0.,0.,-1.));
#810=DIRECTION('center_axis',(0.,0.,-1.));
#811=DIRECTION('ref_axis',(1.,7.2801509811451E-17,0.));
#812=DIRECTION('',(0.,0.,-1.));
#813=DIRECTION('center_axis',(0.,0.,1.));
#814=DIRECTION('ref_axis',(1.,7.2801509811451E-17,0.));
#815=DIRECTION('center_axis',(0.,0.,-1.));
#816=DIRECTION('ref_axis',(1.,7.2801509811451E-17,0.));
#817=DIRECTION('center_axis',(0.,0.,1.));
#818=DIRECTION('ref_axis',(1.,7.2801509811451E-17,0.));
#819=DIRECTION('center_axis',(0.,0.,1.));
#820=DIRECTION('ref_axis',(1.,7.2801509811451E-17,0.));
#821=DIRECTION('',(0.,0.,-1.));
#822=DIRECTION('center_axis',(0.,0.,-1.));
#823=DIRECTION('ref_axis',(1.,7.2801509811451E-17,0.));
#824=DIRECTION('center_axis',(0.,0.,-1.));
#825=DIRECTION('ref_axis',(1.,7.2801509811451E-17,0.));
#826=DIRECTION('center_axis',(0.,0.,1.));
#827=DIRECTION('ref_axis',(1.,7.2801509811451E-17,0.));
#828=DIRECTION('center_axis',(0.,0.,1.));
#829=DIRECTION('ref_axis',(1.,7.2801509811451E-17,0.));
#830=DIRECTION('',(0.,0.,-1.));
#831=DIRECTION('center_axis',(0.,0.,-1.));
#832=DIRECTION('ref_axis',(1.,7.2801509811451E-17,0.));
#833=DIRECTION('center_axis',(0.,0.,-1.));
#834=DIRECTION('ref_axis',(1.,7.2801509811451E-17,0.));
#835=DIRECTION('center_axis',(0.,0.,-1.));
#836=DIRECTION('ref_axis',(1.,7.2801509811451E-17,0.));
#837=DIRECTION('',(0.,0.,-1.));
#838=DIRECTION('center_axis',(0.,0.,-1.));
#839=DIRECTION('ref_axis',(1.,7.2801509811451E-17,0.));
#840=DIRECTION('center_axis',(0.,0.,1.));
#841=DIRECTION('ref_axis',(1.,0.,0.));
#842=DIRECTION('center_axis',(0.,0.,-1.));
#843=DIRECTION('ref_axis',(1.,7.2801509811451E-17,0.));
#844=DIRECTION('center_axis',(0.,0.,-1.));
#845=DIRECTION('ref_axis',(1.,7.2801509811451E-17,0.));
#846=DIRECTION('',(0.,0.,-1.));
#847=DIRECTION('center_axis',(0.,0.,-1.));
#848=DIRECTION('ref_axis',(1.,7.2801509811451E-17,0.));
#849=DIRECTION('center_axis',(0.,0.,1.));
#850=DIRECTION('ref_axis',(1.,0.,0.));
#851=DIRECTION('center_axis',(4.50817834241492E-16,-1.,0.));
#852=DIRECTION('ref_axis',(0.,0.,-1.));
#853=DIRECTION('',(1.,1.11022302462516E-16,0.));
#854=DIRECTION('',(0.,0.,1.));
#855=DIRECTION('',(1.,4.50817834241492E-16,0.));
#856=DIRECTION('center_axis',(4.50817834241492E-16,-1.,0.));
#857=DIRECTION('ref_axis',(0.,0.,-1.));
#858=DIRECTION('',(1.,4.50817834241492E-16,0.));
#859=DIRECTION('',(0.,0.,-1.));
#860=DIRECTION('',(1.,1.11022302462516E-16,0.));
#861=DIRECTION('center_axis',(0.,0.,-1.));
#862=DIRECTION('ref_axis',(-4.50525285354851E-16,1.,0.));
#863=DIRECTION('',(4.50525285354851E-16,-1.,0.));
#864=DIRECTION('',(-1.,0.,0.));
#865=DIRECTION('center_axis',(0.,0.,-1.));
#866=DIRECTION('ref_axis',(-4.50525285354851E-16,1.,0.));
#867=DIRECTION('',(-1.,0.,0.));
#868=DIRECTION('',(5.87805589553977E-16,1.,0.));
#869=DIRECTION('center_axis',(0.,0.,-1.));
#870=DIRECTION('ref_axis',(-4.50525285354851E-16,1.,0.));
#871=DIRECTION('',(1.,4.50817834241492E-16,0.));
#872=DIRECTION('',(-1.,0.,0.));
#873=DIRECTION('center_axis',(0.,0.,-1.));
#874=DIRECTION('ref_axis',(-1.,0.,0.));
#875=DIRECTION('',(1.,1.11022302462516E-16,0.));
#876=DIRECTION('',(-1.,-7.2801509811451E-17,0.));
#877=DIRECTION('',(-5.87805589553977E-16,-1.,0.));
#878=DIRECTION('',(1.,-1.48029736615971E-15,0.));
#879=DIRECTION('',(0.,-1.,0.));
#880=DIRECTION('',(1.,0.,0.));
#881=DIRECTION('',(0.,1.,0.));
#882=DIRECTION('',(1.,0.,0.));
#883=DIRECTION('',(-4.50525285354851E-16,1.,0.));
#884=DIRECTION('',(-1.,-7.2801509811451E-17,0.));
#885=DIRECTION('center_axis',(4.50817834241492E-16,-1.,0.));
#886=DIRECTION('ref_axis',(0.,0.,-1.));
#887=DIRECTION('center_axis',(1.,-5.87805589553977E-16,0.));
#888=DIRECTION('ref_axis',(5.87805589553977E-16,1.,0.));
#889=DIRECTION('',(0.,0.,-1.));
#890=DIRECTION('',(5.87805589553977E-16,1.,0.));
#891=DIRECTION('',(0.,0.,-1.));
#892=DIRECTION('',(-5.87805589553977E-16,-1.,0.));
#893=DIRECTION('center_axis',(0.,1.,0.));
#894=DIRECTION('ref_axis',(1.,0.,0.));
#895=DIRECTION('',(1.,0.,0.));
#896=DIRECTION('',(0.,0.,1.));
#897=DIRECTION('',(0.,0.,-1.));
#898=DIRECTION('center_axis',(1.48029736615971E-15,1.,0.));
#899=DIRECTION('ref_axis',(1.,-1.48029736615971E-15,0.));
#900=DIRECTION('',(1.,-1.48029736615971E-15,0.));
#901=DIRECTION('',(0.,0.,1.));
#902=DIRECTION('',(0.,0.,-1.));
#903=DIRECTION('center_axis',(0.,1.,1.2509555207044E-16));
#904=DIRECTION('ref_axis',(0.,-1.2509555207044E-16,1.));
#905=DIRECTION('',(-7.35318647353454E-32,-1.2509555207044E-16,1.));
#906=DIRECTION('',(1.,0.,0.));
#907=DIRECTION('',(-5.63587092931577E-32,1.2509555207044E-16,-1.));
#908=DIRECTION('center_axis',(1.,-5.87805589553977E-16,0.));
#909=DIRECTION('ref_axis',(5.87805589553977E-16,1.,0.));
#910=DIRECTION('',(0.,0.,1.));
#911=DIRECTION('',(5.87805589553977E-16,1.,0.));
#912=DIRECTION('',(0.,0.,1.));
#913=DIRECTION('',(-5.87805589553977E-16,-1.,0.));
#914=DIRECTION('',(0.,0.,1.));
#915=DIRECTION('',(5.87805589553977E-16,1.,0.));
#916=DIRECTION('center_axis',(-1.,5.87805589553977E-16,0.));
#917=DIRECTION('ref_axis',(0.,1.,0.));
#918=DIRECTION('center_axis',(0.,0.,1.));
#919=DIRECTION('ref_axis',(1.,0.,0.));
#920=DIRECTION('',(-1.,-1.11022302462516E-16,0.));
#921=DIRECTION('',(4.50525285354851E-16,-1.,0.));
#922=DIRECTION('',(1.,1.45603019622902E-16,0.));
#923=DIRECTION('center_axis',(0.,0.,1.));
#924=DIRECTION('ref_axis',(1.,0.,0.));
#925=DIRECTION('',(-2.65127886477592E-16,1.,0.));
#926=DIRECTION('',(1.,1.61486985400023E-16,0.));
#927=DIRECTION('',(0.,-1.,0.));
#928=DIRECTION('',(-1.,-1.45603019622902E-16,0.));
#929=DIRECTION('',(4.50525285354851E-16,-1.,0.));
#930=DIRECTION('center_axis',(-1.,-4.50525285354851E-16,0.));
#931=DIRECTION('ref_axis',(4.50525285354851E-16,-1.,0.));
#932=DIRECTION('',(-4.50525285354851E-16,1.,0.));
#933=DIRECTION('',(0.,0.,-1.));
#934=DIRECTION('',(4.50525285354851E-16,-1.,0.));
#935=DIRECTION('',(0.,0.,1.));
#936=DIRECTION('center_axis',(1.,-5.87805589553977E-16,0.));
#937=DIRECTION('ref_axis',(5.87805589553977E-16,1.,0.));
#938=DIRECTION('',(0.,0.,-1.));
#939=DIRECTION('',(5.87805589553977E-16,1.,0.));
#940=DIRECTION('center_axis',(1.,-5.87805589553977E-16,0.));
#941=DIRECTION('ref_axis',(0.,1.,0.));
#942=DIRECTION('center_axis',(0.,-1.,0.));
#943=DIRECTION('ref_axis',(0.,0.,-1.));
#944=DIRECTION('',(1.,0.,0.));
#945=DIRECTION('center_axis',(1.,0.,0.));
#946=DIRECTION('ref_axis',(0.,1.,0.));
#947=DIRECTION('center_axis',(1.,4.50525285354851E-16,0.));
#948=DIRECTION('ref_axis',(0.,1.,0.));
#949=DIRECTION('',(1.,0.,0.));
#950=DIRECTION('center_axis',(-1.,-4.50525285354851E-16,0.));
#951=DIRECTION('ref_axis',(0.,1.,0.));
#952=DIRECTION('center_axis',(1.,0.,0.));
#953=DIRECTION('ref_axis',(0.,1.,0.));
#954=DIRECTION('',(1.,0.,0.));
#955=DIRECTION('center_axis',(1.11022302462516E-16,-1.,0.));
#956=DIRECTION('ref_axis',(1.,1.11022302462516E-16,0.));
#957=DIRECTION('',(1.,1.11022302462516E-16,0.));
#958=DIRECTION('',(0.,0.,-1.));
#959=DIRECTION('',(1.,1.11022302462516E-16,0.));
#960=DIRECTION('',(1.,1.11022302462516E-16,0.));
#961=DIRECTION('center_axis',(0.,0.,1.));
#962=DIRECTION('ref_axis',(1.,0.,0.));
#963=DIRECTION('',(-1.,-1.45603019622902E-16,0.));
#964=DIRECTION('center_axis',(-1.45603019622902E-16,1.,0.));
#965=DIRECTION('ref_axis',(-1.,-1.45603019622902E-16,0.));
#966=DIRECTION('',(0.,0.,1.));
#967=DIRECTION('',(-1.,-1.45603019622902E-16,0.));
#968=DIRECTION('center_axis',(1.45603019622902E-16,-1.,0.));
#969=DIRECTION('ref_axis',(1.,1.45603019622902E-16,0.));
#970=DIRECTION('',(1.,1.45603019622902E-16,0.));
#971=DIRECTION('center_axis',(-1.,-4.50525285354851E-16,0.));
#972=DIRECTION('ref_axis',(4.50525285354851E-16,-1.,0.));
#973=DIRECTION('',(4.50525285354851E-16,-1.,0.));
#974=DIRECTION('center_axis',(0.,0.,-1.));
#975=DIRECTION('ref_axis',(-1.,0.,0.));
#976=DIRECTION('',(-4.50525285354851E-16,1.,0.));
#977=DIRECTION('',(1.,1.45603019622902E-16,0.));
#978=DIRECTION('',(-1.,-1.45603019622902E-16,0.));
#979=DIRECTION('center_axis',(-1.45603019622902E-16,1.,0.));
#980=DIRECTION('ref_axis',(-1.,-1.45603019622902E-16,0.));
#981=DIRECTION('',(0.,0.,-1.));
#982=DIRECTION('center_axis',(1.45603019622902E-16,-1.,0.));
#983=DIRECTION('ref_axis',(1.,1.45603019622902E-16,0.));
#984=DIRECTION('',(0.,0.,1.));
#985=DIRECTION('center_axis',(-1.,-4.50525285354851E-16,0.));
#986=DIRECTION('ref_axis',(4.50525285354851E-16,-1.,0.));
#987=CARTESIAN_POINT('',(0.,0.,0.));
#988=CARTESIAN_POINT('Origin',(-17.5,-2.5,0.));
#989=CARTESIAN_POINT('',(-19.,-2.5,0.));
#990=CARTESIAN_POINT('',(-19.,-2.5,-3.));
#991=CARTESIAN_POINT('',(-19.,-2.5,0.));
#992=CARTESIAN_POINT('',(-17.5,-4.,0.));
#993=CARTESIAN_POINT('Origin',(-17.5,-2.5,0.));
#994=CARTESIAN_POINT('',(-17.5,-4.,-3.));
#995=CARTESIAN_POINT('',(-17.5,-4.,0.));
#996=CARTESIAN_POINT('Origin',(-17.5,-2.5,-3.));
#997=CARTESIAN_POINT('Origin',(17.5,-2.49999999999998,0.));
#998=CARTESIAN_POINT('',(16.,-2.49999999999998,0.));
#999=CARTESIAN_POINT('',(16.,-2.49999999999998,-3.));
#1000=CARTESIAN_POINT('',(16.,-2.49999999999998,0.));
#1001=CARTESIAN_POINT('',(17.5,-3.99999999999998,0.));
#1002=CARTESIAN_POINT('Origin',(17.5,-2.49999999999998,0.));
#1003=CARTESIAN_POINT('',(17.5,-3.99999999999998,-3.));
#1004=CARTESIAN_POINT('',(17.5,-3.99999999999998,0.));
#1005=CARTESIAN_POINT('Origin',(17.5,-2.49999999999998,-3.));
#1006=CARTESIAN_POINT('Origin',(17.5,-2.49999999999998,0.));
#1007=CARTESIAN_POINT('',(17.5,-0.999999999985463,-3.));
#1008=CARTESIAN_POINT('Origin',(17.5,-2.49999999999998,-3.));
#1009=CARTESIAN_POINT('Origin',(17.5,-2.49999999999998,-3.));
#1010=CARTESIAN_POINT('',(17.5,-3.99999999999998,0.));
#1011=CARTESIAN_POINT('Origin',(17.5,-2.49999999999998,0.));
#1012=CARTESIAN_POINT('Origin',(-17.5,-2.5,0.));
#1013=CARTESIAN_POINT('',(-17.5,-0.999999999985463,-3.));
#1014=CARTESIAN_POINT('Origin',(-17.5,-2.5,-3.));
#1015=CARTESIAN_POINT('Origin',(-17.5,-2.5,-3.));
#1016=CARTESIAN_POINT('',(-17.5,-4.,0.));
#1017=CARTESIAN_POINT('Origin',(-17.5,-2.5,0.));
#1018=CARTESIAN_POINT('Origin',(27.5000000000145,0.700000000000007,0.));
#1019=CARTESIAN_POINT('',(26.0000000000145,0.700000000000007,0.));
#1020=CARTESIAN_POINT('Origin',(27.5000000000145,0.700000000000007,0.));
#1021=CARTESIAN_POINT('',(26.0000000000145,0.700000000000007,-3.));
#1022=CARTESIAN_POINT('',(26.0000000000145,0.700000000000007,0.));
#1023=CARTESIAN_POINT('Origin',(27.5000000000145,0.700000000000007,-3.));
#1024=CARTESIAN_POINT('Origin',(27.5000000000145,0.700000000000007,-3.));
#1025=CARTESIAN_POINT('Origin',(-27.5000000000145,0.700000000000001,0.));
#1026=CARTESIAN_POINT('',(-29.0000000000145,0.700000000000001,0.));
#1027=CARTESIAN_POINT('Origin',(-27.5000000000145,0.700000000000001,0.));
#1028=CARTESIAN_POINT('',(-29.0000000000145,0.700000000000001,-3.));
#1029=CARTESIAN_POINT('',(-29.0000000000145,0.700000000000001,0.));
#1030=CARTESIAN_POINT('Origin',(-27.5000000000145,0.700000000000001,-3.));
#1031=CARTESIAN_POINT('Origin',(-27.5000000000145,0.700000000000001,-3.));
#1032=CARTESIAN_POINT('Origin',(-27.5000000000145,-4.,-7.34788079488411E-16));
#1033=CARTESIAN_POINT('',(-27.5000000000145,-4.,0.));
#1034=CARTESIAN_POINT('',(-13.75,-4.,0.));
#1035=CARTESIAN_POINT('',(-27.5000000000145,-4.,-3.));
#1036=CARTESIAN_POINT('',(-27.5000000000145,-4.,-3.67394039744206E-16));
#1037=CARTESIAN_POINT('',(-27.5000000000145,-4.,-3.));
#1038=CARTESIAN_POINT('Origin',(-27.5000000000145,-4.,-7.34788079488411E-16));
#1039=CARTESIAN_POINT('',(27.5000000000146,-3.99999999999998,-3.));
#1040=CARTESIAN_POINT('',(-27.5000000000145,-4.,-3.));
#1041=CARTESIAN_POINT('',(27.5000000000146,-4.,0.));
#1042=CARTESIAN_POINT('',(27.5000000000146,-3.99999999999998,-3.67394039744206E-16));
#1043=CARTESIAN_POINT('',(-13.75,-4.,0.));
#1044=CARTESIAN_POINT('Origin',(-27.5000000000145,-4.,-3.));
#1045=CARTESIAN_POINT('',(-27.5000000000145,-0.999999999985466,-3.));
#1046=CARTESIAN_POINT('',(-27.5000000000145,31.0000000000145,-3.));
#1047=CARTESIAN_POINT('',(-13.7500000000073,-0.999999999985463,-3.));
#1048=CARTESIAN_POINT('Origin',(-27.5000000000145,-4.,-3.));
#1049=CARTESIAN_POINT('',(27.5000000000146,-0.999999999985466,-3.));
#1050=CARTESIAN_POINT('',(-13.7500000000073,-0.999999999985463,-3.));
#1051=CARTESIAN_POINT('',(27.5000000000145,-35.0000000000146,-3.));
#1052=CARTESIAN_POINT('Origin',(-27.5000000000145,-4.,-3.));
#1053=CARTESIAN_POINT('',(-27.5000000000145,-4.,-3.));
#1054=CARTESIAN_POINT('',(-13.7500000000073,-0.999999999985463,-3.));
#1055=CARTESIAN_POINT('Origin',(0.,-0.499999999992728,0.));
#1056=CARTESIAN_POINT('',(-13.75,-4.,0.));
#1057=CARTESIAN_POINT('',(30.5000000000145,-4.,0.));
#1058=CARTESIAN_POINT('',(-30.5000000000145,-4.,0.));
#1059=CARTESIAN_POINT('',(30.5000000000145,2.5,0.));
#1060=CARTESIAN_POINT('',(30.5000000000145,-33.2500000000109,0.));
#1061=CARTESIAN_POINT('',(27.5,2.50000000000001,0.));
#1062=CARTESIAN_POINT('',(30.5000000000145,2.5,0.));
#1063=CARTESIAN_POINT('',(27.5,3.00000000001455,0.));
#1064=CARTESIAN_POINT('',(27.5,2.50000000000001,0.));
#1065=CARTESIAN_POINT('',(-27.5,3.00000000001455,0.));
#1066=CARTESIAN_POINT('',(0.,3.00000000001454,0.));
#1067=CARTESIAN_POINT('',(-27.5,2.5,0.));
#1068=CARTESIAN_POINT('',(-27.5,3.00000000001455,0.));
#1069=CARTESIAN_POINT('',(-30.5000000000145,2.5,0.));
#1070=CARTESIAN_POINT('',(-27.5,2.5,0.));
#1071=CARTESIAN_POINT('',(-30.5000000000145,-4.,0.));
#1072=CARTESIAN_POINT('',(-30.5000000000145,32.7500000000182,0.));
#1073=CARTESIAN_POINT('',(-30.5000000000145,-4.,0.));
#1074=CARTESIAN_POINT('Origin',(-27.5000000000145,-4.,-7.34788079488411E-16));
#1075=CARTESIAN_POINT('Origin',(27.5000000000145,-66.0000000000291,0.));
#1076=CARTESIAN_POINT('',(27.5,-0.999999999985463,-70.));
#1077=CARTESIAN_POINT('',(27.5000000000146,-0.999999999985466,0.500000000000003));
#1078=CARTESIAN_POINT('',(27.5000000000145,-63.0000000000291,-70.));
#1079=CARTESIAN_POINT('',(27.5000000000145,-33.0000000000146,-70.));
#1080=CARTESIAN_POINT('',(27.5000000000145,-63.0000000000291,0.));
#1081=CARTESIAN_POINT('',(27.5000000000145,-63.0000000000291,0.));
#1082=CARTESIAN_POINT('',(27.5000000000145,-33.0000000000146,0.));
#1083=CARTESIAN_POINT('Origin',(-30.5000000000145,2.5,3.));
#1084=CARTESIAN_POINT('',(-30.5000000000145,2.5,3.));
#1085=CARTESIAN_POINT('',(-27.5,2.5,3.));
#1086=CARTESIAN_POINT('',(-15.2500000000073,2.5,3.));
#1087=CARTESIAN_POINT('',(-30.5000000000145,2.5,1.5));
#1088=CARTESIAN_POINT('',(-27.5,2.5,3.));
#1089=CARTESIAN_POINT('Origin',(27.5,2.50000000000001,3.));
#1090=CARTESIAN_POINT('',(27.5,2.50000000000001,3.));
#1091=CARTESIAN_POINT('',(30.5000000000145,2.5,3.));
#1092=CARTESIAN_POINT('',(13.75,2.50000000000003,3.));
#1093=CARTESIAN_POINT('',(27.5000000000146,2.50000000000001,1.5));
#1094=CARTESIAN_POINT('',(30.5000000000146,2.50000000000001,1.5));
#1095=CARTESIAN_POINT('Origin',(0.,3.00000000001455,-70.));
#1096=CARTESIAN_POINT('',(27.5,3.00000000001455,-70.));
#1097=CARTESIAN_POINT('',(27.5000000000146,3.00000000001454,-35.));
#1098=CARTESIAN_POINT('',(-27.5,3.00000000001455,-70.));
#1099=CARTESIAN_POINT('',(0.,3.00000000001455,-70.));
#1100=CARTESIAN_POINT('',(-27.5000000000145,3.00000000001454,-35.));
#1101=CARTESIAN_POINT('Origin',(30.5000000000145,-66.0000000000291,0.));
#1102=CARTESIAN_POINT('',(30.5000000000145,-4.,3.));
#1103=CARTESIAN_POINT('',(30.5000000000146,-3.99999999999999,1.5));
#1104=CARTESIAN_POINT('',(30.5000000000145,-66.0000000000291,3.));
#1105=CARTESIAN_POINT('',(30.5000000000145,-66.0000000000291,3.));
#1106=CARTESIAN_POINT('',(30.5000000000145,-66.0000000000291,-70.));
#1107=CARTESIAN_POINT('',(30.5000000000145,-66.0000000000291,0.));
#1108=CARTESIAN_POINT('',(30.5000000000145,66.0000000000291,-70.));
#1109=CARTESIAN_POINT('',(30.5000000000145,-66.0000000000291,-70.));
#1110=CARTESIAN_POINT('',(30.5000000000145,66.0000000000291,3.));
#1111=CARTESIAN_POINT('',(30.5000000000145,66.0000000000291,0.));
#1112=CARTESIAN_POINT('',(30.5000000000145,-66.0000000000291,3.));
#1113=CARTESIAN_POINT('',(30.5000000000145,57.75,1.53080849893419E-16));
#1114=CARTESIAN_POINT('Origin',(30.5000000000145,59.,0.));
#1115=CARTESIAN_POINT('Origin',(8.88178419700125E-15,0.,3.));
#1116=CARTESIAN_POINT('',(-30.5000000000145,-4.,3.));
#1117=CARTESIAN_POINT('',(-13.75,-4.,3.));
#1118=CARTESIAN_POINT('',(-30.5000000000145,-66.0000000000291,3.));
#1119=CARTESIAN_POINT('',(-30.5000000000145,66.0000000000291,3.));
#1120=CARTESIAN_POINT('',(-30.5000000000145,-66.0000000000291,3.));
#1121=CARTESIAN_POINT('Origin',(8.88178419700125E-15,0.,3.));
#1122=CARTESIAN_POINT('',(-27.5,63.0000000000145,3.));
#1123=CARTESIAN_POINT('',(-27.5,31.5000000000073,3.));
#1124=CARTESIAN_POINT('',(27.5,63.0000000000145,3.));
#1125=CARTESIAN_POINT('',(13.75,63.0000000000145,3.));
#1126=CARTESIAN_POINT('',(27.5,-2.,3.));
#1127=CARTESIAN_POINT('',(-30.5000000000145,66.0000000000291,3.));
#1128=CARTESIAN_POINT('',(30.5000000000145,66.0000000000291,3.));
#1129=CARTESIAN_POINT('',(-30.5000000000145,66.0000000000291,3.));
#1130=CARTESIAN_POINT('Origin',(-27.5000000000145,66.0000000000291,0.));
#1131=CARTESIAN_POINT('',(-27.5000000000145,-63.0000000000291,0.));
#1132=CARTESIAN_POINT('',(-27.5000000000145,33.0000000000145,0.));
#1133=CARTESIAN_POINT('',(-27.5000000000145,-63.0000000000291,-70.));
#1134=CARTESIAN_POINT('',(-27.5000000000145,-63.0000000000291,0.));
#1135=CARTESIAN_POINT('',(-27.5,-0.999999999985463,-70.));
#1136=CARTESIAN_POINT('',(-27.5000000000145,33.0000000000145,-70.));
#1137=CARTESIAN_POINT('',(-27.5000000000145,-0.999999999985466,0.500000000000003));
#1138=CARTESIAN_POINT('Origin',(27.5000000000145,-66.0000000000291,0.));
#1139=CARTESIAN_POINT('',(27.5000000000146,63.0000000000291,-70.));
#1140=CARTESIAN_POINT('',(27.5000000000146,63.0000000000291,0.));
#1141=CARTESIAN_POINT('',(27.5000000000145,-33.0000000000146,-70.));
#1142=CARTESIAN_POINT('',(27.5000000000145,57.75,-1.53080849893419E-16));
#1143=CARTESIAN_POINT('Origin',(27.5000000000145,59.,0.));
#1144=CARTESIAN_POINT('Origin',(0.,-0.999999999985463,1.00000000000001));
#1145=CARTESIAN_POINT('',(0.,-0.999999999985463,-70.));
#1146=CARTESIAN_POINT('Origin',(0.,59.,0.));
#1147=CARTESIAN_POINT('',(-30.5000000000145,57.75,-1.53080849893419E-16));
#1148=CARTESIAN_POINT('Origin',(-30.5000000000145,59.,0.));
#1149=CARTESIAN_POINT('',(-27.5000000000145,57.75,1.53080849893419E-16));
#1150=CARTESIAN_POINT('',(0.,57.75,-1.53080849893419E-16));
#1151=CARTESIAN_POINT('Origin',(-27.5000000000145,59.,0.));
#1152=CARTESIAN_POINT('Origin',(0.,59.,0.));
#1153=CARTESIAN_POINT('',(0.,57.75,-1.53080849893419E-16));
#1154=CARTESIAN_POINT('Origin',(-27.5,-4.,0.));
#1155=CARTESIAN_POINT('',(-13.75,-4.,0.));
#1156=CARTESIAN_POINT('',(-30.5000000000145,-4.00000000000001,1.5));
#1157=CARTESIAN_POINT('',(-13.75,-4.,0.));
#1158=CARTESIAN_POINT('',(-13.75,-4.,0.));
#1159=CARTESIAN_POINT('Origin',(8.88178419700125E-15,0.,0.));
#1160=CARTESIAN_POINT('',(-15.2500000000072,-63.0000000000291,0.));
#1161=CARTESIAN_POINT('Origin',(30.5000000000145,63.0000000000291,0.));
#1162=CARTESIAN_POINT('',(-27.5000000000145,63.0000000000291,-70.));
#1163=CARTESIAN_POINT('',(-27.5000000000145,63.0000000000291,0.));
#1164=CARTESIAN_POINT('',(15.2500000000073,63.0000000000291,-70.));
#1165=CARTESIAN_POINT('Origin',(-30.5000000000145,-63.0000000000291,0.));
#1166=CARTESIAN_POINT('',(-15.2500000000072,-63.0000000000291,-70.));
#1167=CARTESIAN_POINT('Origin',(-27.5000000000145,66.0000000000291,0.));
#1168=CARTESIAN_POINT('',(-27.5000000000145,33.0000000000145,-70.));
#1169=CARTESIAN_POINT('Origin',(8.88178419700125E-15,0.,-70.));
#1170=CARTESIAN_POINT('',(-30.5000000000145,-66.0000000000291,-70.));
#1171=CARTESIAN_POINT('',(-30.5000000000145,66.0000000000291,-70.));
#1172=CARTESIAN_POINT('',(-30.5000000000145,66.0000000000291,-70.));
#1173=CARTESIAN_POINT('',(30.5000000000145,66.0000000000291,-70.));
#1174=CARTESIAN_POINT('',(-30.5000000000145,-66.0000000000291,-70.));
#1175=CARTESIAN_POINT('Origin',(30.5000000000145,66.0000000000291,0.));
#1176=CARTESIAN_POINT('',(-30.5000000000145,66.0000000000291,0.));
#1177=CARTESIAN_POINT('Origin',(-30.5000000000145,-66.0000000000291,0.));
#1178=CARTESIAN_POINT('',(-30.5000000000145,-66.0000000000291,0.));
#1179=CARTESIAN_POINT('Origin',(-30.5000000000145,66.0000000000291,0.));
#1180=CARTESIAN_POINT('polyline point',(-30.5000000000145,66.0000000000291,
0.));
#1181=CARTESIAN_POINT('polyline point',(30.5000000000145,66.0000000000291,
0.));
#1182=CARTESIAN_POINT('polyline point',(30.5000000000145,66.0000000000291,
0.));
#1183=CARTESIAN_POINT('polyline point',(30.5000000000146,-5.5597159684282,
0.));
#1184=CARTESIAN_POINT('polyline point',(-30.5000000000145,-3.00000000001456,
0.));
#1185=CARTESIAN_POINT('polyline point',(-30.5000000000145,66.0000000000291,
0.));
#1186=CARTESIAN_POINT('polyline point',(-30.5000000000145,-66.0000000000291,
0.));
#1187=CARTESIAN_POINT('polyline point',(30.5000000000145,-66.0000000000291,
0.));
#1188=CARTESIAN_POINT('polyline point',(30.5000000000145,-66.0000000000291,
0.));
#1189=CARTESIAN_POINT('polyline point',(30.5000000000146,-5.5597159684282,
0.));
#1190=CARTESIAN_POINT('polyline point',(-30.5000000000145,-3.00000000001456,
0.));
#1191=CARTESIAN_POINT('polyline point',(-30.5000000000145,-66.0000000000291,
0.));
#1192=CARTESIAN_POINT('',(0.,3.00000000001455,0.));
#1193=CARTESIAN_POINT('',(0.,-3.00000000001455,0.));
#1194=UNCERTAINTY_MEASURE_WITH_UNIT(LENGTH_MEASURE(0.01),#1198,
'DISTANCE_ACCURACY_VALUE',
'Maximum model space distance between geometric entities at asserted c
onnectivities');
#1195=UNCERTAINTY_MEASURE_WITH_UNIT(LENGTH_MEASURE(0.01),#1198,
'DISTANCE_ACCURACY_VALUE',
'Maximum model space distance between geometric entities at asserted c
onnectivities');
#1196=(
GEOMETRIC_REPRESENTATION_CONTEXT(3)
GLOBAL_UNCERTAINTY_ASSIGNED_CONTEXT((#1194))
GLOBAL_UNIT_ASSIGNED_CONTEXT((#1198,#1200,#1201))
REPRESENTATION_CONTEXT('','3D')
);
#1197=(
GEOMETRIC_REPRESENTATION_CONTEXT(3)
GLOBAL_UNCERTAINTY_ASSIGNED_CONTEXT((#1195))
GLOBAL_UNIT_ASSIGNED_CONTEXT((#1198,#1200,#1201))
REPRESENTATION_CONTEXT('','3D')
);
#1198=(
LENGTH_UNIT()
NAMED_UNIT(*)
SI_UNIT(.MILLI.,.METRE.)
);
#1199=(
LENGTH_UNIT()
NAMED_UNIT(*)
SI_UNIT(.CENTI.,.METRE.)
);
#1200=(
NAMED_UNIT(*)
PLANE_ANGLE_UNIT()
SI_UNIT($,.RADIAN.)
);
#1201=(
NAMED_UNIT(*)
SI_UNIT($,.STERADIAN.)
SOLID_ANGLE_UNIT()
);
#1202=SHAPE_DEFINITION_REPRESENTATION(#1203,#1204);
#1203=PRODUCT_DEFINITION_SHAPE('',$,#1206);
#1204=SHAPE_REPRESENTATION('',(#742),#1196);
#1205=PRODUCT_DEFINITION_CONTEXT('part definition',#1210,'design');
#1206=PRODUCT_DEFINITION('frame','frame',#1207,#1205);
#1207=PRODUCT_DEFINITION_FORMATION('',$,#1212);
#1208=PRODUCT_RELATED_PRODUCT_CATEGORY('frame','frame',(#1212));
#1209=APPLICATION_PROTOCOL_DEFINITION('international standard',
'automotive_design',2009,#1210);
#1210=APPLICATION_CONTEXT(
'Core Data for Automotive Mechanical Design Process');
#1211=PRODUCT_CONTEXT('part definition',#1210,'mechanical');
#1212=PRODUCT('frame','frame',$,(#1211));
#1213=PRESENTATION_STYLE_ASSIGNMENT((#1215));
#1214=PRESENTATION_STYLE_ASSIGNMENT((#1216));
#1215=SURFACE_STYLE_USAGE(.BOTH.,#1219);
#1216=SURFACE_STYLE_USAGE(.BOTH.,#1220);
#1217=SURFACE_STYLE_RENDERING_WITH_PROPERTIES($,#1227,(#1218));
#1218=SURFACE_STYLE_TRANSPARENT(0.);
#1219=SURFACE_SIDE_STYLE('',(#1221,#1217));
#1220=SURFACE_SIDE_STYLE('',(#1222));
#1221=SURFACE_STYLE_FILL_AREA(#1223);
#1222=SURFACE_STYLE_FILL_AREA(#1224);
#1223=FILL_AREA_STYLE('',(#1225));
#1224=FILL_AREA_STYLE('',(#1226));
#1225=FILL_AREA_STYLE_COLOUR('',#1227);
#1226=FILL_AREA_STYLE_COLOUR('',#1228);
#1227=COLOUR_RGB('',0.749019607843137,0.749019607843137,0.749019607843137);
#1228=COLOUR_RGB('',1.,1.,1.);
ENDSEC;
END-ISO-10303-21;
